{
.appVersion = "930";
copyright = "Copyright 2016 Jeremy Tribby. SIL OFL License v1.1.";
date = "2016-07-12 00:27:02 +0000";
designer = "Jeremy Tribby";
designerURL = "http://tribby.com/";
familyName = Barlow;
featurePrefixes = (
{
automatic = 1;
code = "languagesystem DFLT dflt;\012";
name = Languagesystems;
}
);
features = (
{
automatic = 1;
code = "sub hyphen hyphen by hyphen_hyphen.liga;\012";
name = liga;
}
);
fontMaster = (
{
alignmentZones = (
"{800, 16}",
"{700, 10}",
"{500, 6}",
"{0, -10}",
"{-200, -12}"
);
ascender = 800;
capHeight = 700;
customParameters = (
{
name = paramArea;
value = "488";
},
{
name = paramDepth;
value = "16";
},
{
name = paramOver;
value = "0";
}
);
descender = -200;
horizontalStems = (
22,
22
);
id = "262880E7-CFE1-4BDA-902E-E24798F3240A";
userData = {
GSCornerRadius = 8;
GSOffsetHorizontal = 100;
GSOffsetMakeStroke = 1;
GSOffsetVertical = 90;
noodleExtremesAndInflections = 1;
noodleRemoveOverlap = 1;
noodleThickness = "22.0";
};
verticalStems = (
21,
21
);
visible = 1;
weight = Light;
weightValue = 23;
xHeight = 500;
},
{
alignmentZones = (
"{800, 16}",
"{700, 9}",
"{500, 5}",
"{0, -9}",
"{-200, -10}"
);
ascender = 800;
capHeight = 700;
customParameters = (
{
name = paramArea;
value = "488";
},
{
name = paramDepth;
value = "16";
},
{
name = paramOver;
value = "0";
}
);
descender = -200;
horizontalStems = (
188,
188
);
id = "4E2227F3-52E4-4048-A8EE-327B486EF0A4";
userData = {
GSCornerRadius = 8;
GSOffsetHorizontal = 68;
GSOffsetMakeStroke = 1;
GSOffsetVertical = 68;
noodleExtremesAndInflections = 1;
noodleRemoveOverlap = 1;
noodleThickness = "22.0";
};
verticalStems = (
166,
150
);
visible = 1;
weight = Bold;
weightValue = 188;
xHeight = 500;
}
);
glyphs = (
{
color = 1;
glyphname = A;
lastChange = "2016-10-23 03:24:16 +0000";
layers = (
{
layerId = "262880E7-CFE1-4BDA-902E-E24798F3240A";
paths = (
{
closed = 1;
nodes = (
"35 0 LINE",
"225 658 LINE",
"415 0 LINE",
"437 0 LINE",
"236 700 LINE",
"213 700 LINE",
"12 0 LINE"
);
},
{
closed = 1;
nodes = (
"382 145 LINE",
"382 166 LINE",
"72 166 LINE",
"72 145 LINE"
);
}
);
width = 449;
},
{
layerId = "4E2227F3-52E4-4048-A8EE-327B486EF0A4";
paths = (
{
closed = 1;
nodes = (
"188 0 LINE",
"274 449 LINE",
"346 0 LINE",
"534 0 LINE",
"370 700 LINE",
"164 700 LINE",
"0 0 LINE"
);
},
{
closed = 1;
nodes = (
"407 100 LINE",
"407 252 LINE",
"128 252 LINE",
"128 100 LINE"
);
}
);
width = 534;
}
);
unicode = 0041;
},
{
color = 1;
glyphname = B;
lastChange = "2016-10-23 03:49:41 +0000";
layers = (
{
layerId = "262880E7-CFE1-4BDA-902E-E24798F3240A";
paths = (
{
closed = 1;
nodes = (
"260 0 LINE SMOOTH",
"370 0 OFFCURVE",
"443 74 OFFCURVE",
"443 186 CURVE SMOOTH",
"443 298 OFFCURVE",
"370 372 OFFCURVE",
"260 372 CURVE SMOOTH",
"80 372 LINE",
"80 0 LINE"
);
},
{
closed = 1;
nodes = (
"102 351 LINE",
"260 351 LINE SMOOTH",
"357 351 OFFCURVE",
"421 285 OFFCURVE",
"421 186 CURVE SMOOTH",
"421 88 OFFCURVE",
"357 22 OFFCURVE",
"260 22 CURVE SMOOTH",
"102 22 LINE"
);
},
{
closed = 1;
nodes = (
"102 679 LINE",
"260 679 LINE SMOOTH",
"357 679 OFFCURVE",
"421 617 OFFCURVE",
"421 523 CURVE SMOOTH",
"421 432 OFFCURVE",
"357 372 OFFCURVE",
"260 372 CURVE SMOOTH",
"102 372 LINE"
);
},
{
closed = 1;
nodes = (
"260 351 LINE SMOOTH",
"370 351 OFFCURVE",
"443 420 OFFCURVE",
"443 523 CURVE SMOOTH",
"443 629 OFFCURVE",
"370 700 OFFCURVE",
"260 700 CURVE SMOOTH",
"80 700 LINE",
"80 351 LINE"
);
}
);
width = 491;
},
{
layerId = "4E2227F3-52E4-4048-A8EE-327B486EF0A4";
paths = (
{
closed = 1;
nodes = (
"263 0 LINE SMOOTH",
"398 0 OFFCURVE",
"488 83 OFFCURVE",
"488 204 CURVE SMOOTH",
"488 332 OFFCURVE",
"346 411 OFFCURVE",
"196 411 CURVE",
"24 411 LINE",
"24 0 LINE"
);
},
{
closed = 1;
nodes = (
"212 296 LINE",
"249 296 LINE SMOOTH",
"280 296 OFFCURVE",
"300 264 OFFCURVE",
"300 225 CURVE SMOOTH",
"300 186 OFFCURVE",
"279 166 OFFCURVE",
"248 166 CURVE SMOOTH",
"212 166 LINE"
);
},
{
closed = 1;
nodes = (
"212 534 LINE",
"242 534 LINE",
"269 534 OFFCURVE",
"287 516 OFFCURVE",
"287 479 CURVE SMOOTH",
"287 442 OFFCURVE",
"269 411 OFFCURVE",
"242 411 CURVE",
"212 411 LINE"
);
},
{
closed = 1;
nodes = (
"196 312 LINE SMOOTH",
"338 312 OFFCURVE",
"475 387 OFFCURVE",
"475 503 CURVE SMOOTH",
"475 620 OFFCURVE",
"379 700 OFFCURVE",
"234 700 CURVE",
"24 700 LINE",
"24 312 LINE"
);
}
);
width = 500;
},
{
associatedMasterId = "4E2227F3-52E4-4048-A8EE-327B486EF0A4";
layerId = "61038666-3371-4C14-8B39-94AF9622E2C7";
name = "DemiBold{110,100}";
paths = (
{
closed = 1;
nodes = (
"262 0 LINE SMOOTH",
"385 0 OFFCURVE",
"467 78 OFFCURVE",
"467 195 CURVE SMOOTH",
"467 322 OFFCURVE",
"371 404 OFFCURVE",
"226 399 CURVE SMOOTH",
"50 393 LINE",
"50 0 LINE"
);
},
{
closed = 1;
nodes = (
"160 316 LINE",
"254 316 LINE SMOOTH",
"316 316 OFFCURVE",
"357 268 OFFCURVE",
"357 204 CURVE SMOOTH",
"357 140 OFFCURVE",
"316 98 OFFCURVE",
"254 98 CURVE SMOOTH",
"160 98 LINE"
);
},
{
closed = 1;
nodes = (
"160 603 LINE",
"251 603 LINE SMOOTH",
"310 603 OFFCURVE",
"350 563 OFFCURVE",
"350 503 CURVE SMOOTH",
"350 441 OFFCURVE",
"310 399 OFFCURVE",
"251 399 CURVE SMOOTH",
"160 399 LINE"
);
},
{
closed = 1;
nodes = (
"226 324 LINE SMOOTH",
"366 322 OFFCURVE",
"460 397 OFFCURVE",
"460 512 CURVE SMOOTH",
"460 625 OFFCURVE",
"374 700 OFFCURVE",
"246 700 CURVE SMOOTH",
"50 700 LINE",
"50 326 LINE"
);
}
);
width = 496;
}
);
unicode = 0042;
},
{
color = 1;
glyphname = C;
lastChange = "2016-10-23 02:59:46 +0000";
layers = (
{
layerId = "262880E7-CFE1-4BDA-902E-E24798F3240A";
paths = (
{
closed = 1;
nodes = (
"341 -9 OFFCURVE",
"410 56 OFFCURVE",
"410 154 CURVE SMOOTH",
"410 154 LINE",
"388 154 LINE",
"388 152 LINE SMOOTH",
"388 68 OFFCURVE",
"328 12 OFFCURVE",
"237 12 CURVE SMOOTH",
"146 12 OFFCURVE",
"86 68 OFFCURVE",
"86 152 CURVE SMOOTH",
"86 548 LINE SMOOTH",
"86 632 OFFCURVE",
"146 688 OFFCURVE",
"237 688 CURVE SMOOTH",
"328 688 OFFCURVE",
"388 632 OFFCURVE",
"388 548 CURVE SMOOTH",
"388 545 LINE",
"410 545 LINE",
"410 546 LINE SMOOTH",
"410 644 OFFCURVE",
"341 709 OFFCURVE",
"237 709 CURVE SMOOTH",
"133 709 OFFCURVE",
"64 644 OFFCURVE",
"64 546 CURVE SMOOTH",
"64 154 LINE SMOOTH",
"64 56 OFFCURVE",
"133 -9 OFFCURVE",
"237 -9 CURVE SMOOTH"
);
}
);
width = 450;
},
{
layerId = "4E2227F3-52E4-4048-A8EE-327B486EF0A4";
paths = (
{
closed = 1;
nodes = (
"387 -8 OFFCURVE",
"480 72 OFFCURVE",
"480 192 CURVE SMOOTH",
"480 244 LINE",
"292 244 LINE",
"292 196 LINE SMOOTH",
"292 170 OFFCURVE",
"274 152 OFFCURVE",
"248 152 CURVE SMOOTH",
"222 152 OFFCURVE",
"204 170 OFFCURVE",
"204 196 CURVE SMOOTH",
"204 504 LINE SMOOTH",
"204 530 OFFCURVE",
"222 548 OFFCURVE",
"248 548 CURVE SMOOTH",
"274 548 OFFCURVE",
"292 530 OFFCURVE",
"292 504 CURVE SMOOTH",
"292 456 LINE",
"480 456 LINE",
"480 508 LINE SMOOTH",
"480 628 OFFCURVE",
"387 708 OFFCURVE",
"248 708 CURVE SMOOTH",
"109 708 OFFCURVE",
"16 628 OFFCURVE",
"16 508 CURVE SMOOTH",
"16 192 LINE SMOOTH",
"16 72 OFFCURVE",
"109 -8 OFFCURVE",
"248 -8 CURVE SMOOTH"
);
}
);
width = 496;
}
);
unicode = 0043;
},
{
color = 1;
glyphname = D;
lastChange = "2016-10-23 02:47:51 +0000";
layers = (
{
layerId = "262880E7-CFE1-4BDA-902E-E24798F3240A";
paths = (
{
closed = 1;
nodes = (
"251 0 LINE SMOOTH",
"358 0 OFFCURVE",
"424 68 OFFCURVE",
"424 180 CURVE SMOOTH",
"424 520 LINE SMOOTH",
"424 632 OFFCURVE",
"358 700 OFFCURVE",
"251 700 CURVE SMOOTH",
"80 700 LINE",
"80 0 LINE"
);
},
{
closed = 1;
nodes = (
"102 679 LINE",
"253 679 LINE SMOOTH",
"345 679 OFFCURVE",
"402 619 OFFCURVE",
"402 520 CURVE SMOOTH",
"402 179 LINE SMOOTH",
"402 81 OFFCURVE",
"345 21 OFFCURVE",
"253 21 CURVE SMOOTH",
"102 21 LINE"
);
}
);
width = 488;
},
{
layerId = "4E2227F3-52E4-4048-A8EE-327B486EF0A4";
paths = (
{
closed = 1;
nodes = (
"259 0 LINE SMOOTH",
"394 0 OFFCURVE",
"484 80 OFFCURVE",
"484 200 CURVE SMOOTH",
"484 500 LINE SMOOTH",
"484 620 OFFCURVE",
"394 700 OFFCURVE",
"259 700 CURVE SMOOTH",
"24 700 LINE",
"24 0 LINE"
);
},
{
closed = 1;
nodes = (
"212 534 LINE",
"244 534 LINE SMOOTH",
"275 534 OFFCURVE",
"296 514 OFFCURVE",
"296 483 CURVE",
"296 217 LINE",
"294 187 OFFCURVE",
"273 167 OFFCURVE",
"244 166 CURVE SMOOTH",
"212 165 LINE"
);
}
);
width = 502;
}
);
unicode = 0044;
},
{
color = 1;
glyphname = E;
lastChange = "2016-10-23 02:47:51 +0000";
layers = (
{
layerId = "262880E7-CFE1-4BDA-902E-E24798F3240A";
paths = (
{
closed = 1;
nodes = (
"422 0 LINE",
"422 21 LINE",
"102 21 LINE",
"102 679 LINE",
"422 679 LINE",
"422 700 LINE",
"80 700 LINE",
"80 0 LINE"
);
},
{
closed = 1;
nodes = (
"325 340 LINE",
"325 361 LINE",
"91 361 LINE",
"91 340 LINE"
);
}
);
width = 462;
},
{
layerId = "4E2227F3-52E4-4048-A8EE-327B486EF0A4";
paths = (
{
closed = 1;
nodes = (
"459 0 LINE",
"459 158 LINE",
"212 158 LINE",
"212 542 LINE",
"459 542 LINE",
"459 700 LINE",
"24 700 LINE",
"24 0 LINE"
);
},
{
closed = 1;
nodes = (
"360 283 LINE",
"360 443 LINE",
"100 443 LINE",
"100 283 LINE"
);
}
);
width = 477;
}
);
unicode = 0045;
},
{
color = 1;
glyphname = F;
lastChange = "2016-10-23 02:58:54 +0000";
layers = (
{
layerId = "262880E7-CFE1-4BDA-902E-E24798F3240A";
paths = (
{
closed = 1;
nodes = (
"102 0 LINE",
"102 679 LINE",
"421 679 LINE",
"421 700 LINE",
"80 700 LINE",
"80 0 LINE"
);
},
{
closed = 1;
nodes = (
"324 340 LINE",
"324 361 LINE",
"91 361 LINE",
"91 340 LINE"
);
}
);
width = 453;
},
{
layerId = "4E2227F3-52E4-4048-A8EE-327B486EF0A4";
paths = (
{
closed = 1;
nodes = (
"212 0 LINE",
"212 534 LINE",
"459 534 LINE",
"459 700 LINE",
"24 700 LINE",
"24 0 LINE"
);
},
{
closed = 1;
nodes = (
"360 269 LINE",
"360 435 LINE",
"100 435 LINE",
"100 269 LINE"
);
}
);
width = 471;
}
);
unicode = 0046;
},
{
color = 1;
glyphname = G;
lastChange = "2016-10-23 03:50:10 +0000";
layers = (
{
layerId = "262880E7-CFE1-4BDA-902E-E24798F3240A";
paths = (
{
closed = 1;
nodes = (
"341 -9 OFFCURVE",
"410 56 OFFCURVE",
"410 154 CURVE SMOOTH",
"410 361 LINE",
"246 361 LINE",
"246 340 LINE",
"388 340 LINE",
"388 152 LINE SMOOTH",
"388 68 OFFCURVE",
"328 12 OFFCURVE",
"237 12 CURVE SMOOTH",
"146 12 OFFCURVE",
"86 68 OFFCURVE",
"86 152 CURVE SMOOTH",
"86 548 LINE SMOOTH",
"86 632 OFFCURVE",
"146 688 OFFCURVE",
"237 688 CURVE SMOOTH",
"328 688 OFFCURVE",
"388 632 OFFCURVE",
"388 548 CURVE SMOOTH",
"388 500 LINE",
"410 500 LINE",
"410 546 LINE SMOOTH",
"410 644 OFFCURVE",
"341 709 OFFCURVE",
"237 709 CURVE SMOOTH",
"133 709 OFFCURVE",
"64 644 OFFCURVE",
"64 546 CURVE SMOOTH",
"64 154 LINE SMOOTH",
"64 56 OFFCURVE",
"133 -9 OFFCURVE",
"237 -9 CURVE SMOOTH"
);
}
);
width = 474;
},
{
layerId = "4E2227F3-52E4-4048-A8EE-327B486EF0A4";
paths = (
{
closed = 1;
nodes = (
"386 -8 OFFCURVE",
"478 72 OFFCURVE",
"478 192 CURVE SMOOTH",
"478 380 LINE",
"250 380 LINE",
"250 271 LINE",
"290 271 LINE",
"290 194 LINE SMOOTH",
"290 169 OFFCURVE",
"273 152 OFFCURVE",
"248 152 CURVE SMOOTH",
"223 152 OFFCURVE",
"206 169 OFFCURVE",
"206 194 CURVE SMOOTH",
"206 506 LINE SMOOTH",
"206 531 OFFCURVE",
"223 548 OFFCURVE",
"248 548 CURVE SMOOTH",
"273 548 OFFCURVE",
"290 531 OFFCURVE",
"290 506 CURVE SMOOTH",
"290 430 LINE",
"478 430 LINE",
"478 508 LINE SMOOTH",
"478 628 OFFCURVE",
"386 708 OFFCURVE",
"248 708 CURVE SMOOTH",
"110 708 OFFCURVE",
"18 628 OFFCURVE",
"18 508 CURVE SMOOTH",
"18 192 LINE SMOOTH",
"18 72 OFFCURVE",
"110 -8 OFFCURVE",
"248 -8 CURVE SMOOTH"
);
}
);
width = 496;
},
{
associatedMasterId = "4E2227F3-52E4-4048-A8EE-327B486EF0A4";
layerId = "3C312D8B-2C3F-47CF-BAFE-2D0CD7DFA532";
name = "DemiBold{110,100}";
paths = (
{
closed = 1;
nodes = (
"365 -8 OFFCURVE",
"446 64 OFFCURVE",
"446 174 CURVE SMOOTH",
"446 371 LINE",
"248 371 LINE",
"248 277 LINE",
"336 277 LINE",
"336 174 LINE SMOOTH",
"336 121 OFFCURVE",
"299 86 OFFCURVE",
"243 86 CURVE SMOOTH",
"187 86 OFFCURVE",
"149 121 OFFCURVE",
"149 174 CURVE SMOOTH",
"149 526 LINE SMOOTH",
"149 579 OFFCURVE",
"187 614 OFFCURVE",
"243 614 CURVE SMOOTH",
"299 614 OFFCURVE",
"336 579 OFFCURVE",
"336 526 CURVE SMOOTH",
"336 463 LINE",
"446 463 LINE",
"446 526 LINE SMOOTH",
"446 636 OFFCURVE",
"365 708 OFFCURVE",
"243 708 CURVE SMOOTH",
"121 708 OFFCURVE",
"40 636 OFFCURVE",
"40 526 CURVE SMOOTH",
"40 174 LINE SMOOTH",
"40 64 OFFCURVE",
"121 -8 OFFCURVE",
"243 -8 CURVE SMOOTH"
);
}
);
width = 486;
}
);
unicode = 0047;
},
{
color = 1;
glyphname = H;
lastChange = "2016-10-23 02:47:51 +0000";
layers = (
{
layerId = "262880E7-CFE1-4BDA-902E-E24798F3240A";
paths = (
{
closed = 1;
nodes = (
"424 0 LINE",
"424 700 LINE",
"402 700 LINE",
"402 0 LINE"
);
},
{
closed = 1;
nodes = (
"102 0 LINE",
"102 700 LINE",
"80 700 LINE",
"80 0 LINE"
);
},
{
closed = 1;
nodes = (
"407 340 LINE",
"407 361 LINE",
"97 361 LINE",
"97 340 LINE"
);
}
);
width = 504;
},
{
layerId = "4E2227F3-52E4-4048-A8EE-327B486EF0A4";
paths = (
{
closed = 1;
nodes = (
"466 0 LINE",
"466 700 LINE",
"278 700 LINE",
"278 0 LINE"
);
},
{
closed = 1;
nodes = (
"212 0 LINE",
"212 700 LINE",
"24 700 LINE",
"24 0 LINE"
);
},
{
closed = 1;
nodes = (
"347 275 LINE",
"347 435 LINE",
"142 435 LINE",
"142 275 LINE"
);
}
);
width = 490;
}
);
unicode = 0048;
},
{
color = 1;
glyphname = I;
lastChange = "2016-10-23 02:53:53 +0000";
layers = (
{
layerId = "262880E7-CFE1-4BDA-902E-E24798F3240A";
paths = (
{
closed = 1;
nodes = (
"112 0 LINE",
"112 700 LINE",
"90 700 LINE",
"90 0 LINE"
);
}
);
width = 202;
},
{
layerId = "4E2227F3-52E4-4048-A8EE-327B486EF0A4";
paths = (
{
closed = 1;
nodes = (
"212 0 LINE",
"212 700 LINE",
"24 700 LINE",
"24 0 LINE"
);
}
);
width = 236;
}
);
unicode = 0049;
},
{
color = 1;
glyphname = J;
lastChange = "2016-10-23 02:48:04 +0000";
layers = (
{
layerId = "262880E7-CFE1-4BDA-902E-E24798F3240A";
paths = (
{
closed = 1;
nodes = (
"334 -9 OFFCURVE",
"402 56 OFFCURVE",
"402 154 CURVE SMOOTH",
"402 700 LINE",
"380 700 LINE",
"380 152 LINE SMOOTH",
"380 68 OFFCURVE",
"320 12 OFFCURVE",
"231 12 CURVE SMOOTH",
"142 12 OFFCURVE",
"82 68 OFFCURVE",
"82 152 CURVE SMOOTH",
"82 234 LINE",
"60 234 LINE",
"60 154 LINE SMOOTH",
"60 56 OFFCURVE",
"128 -9 OFFCURVE",
"231 -9 CURVE SMOOTH"
);
}
);
width = 482;
},
{
layerId = "4E2227F3-52E4-4048-A8EE-327B486EF0A4";
paths = (
{
closed = 1;
nodes = (
"392 -8 OFFCURVE",
"484 72 OFFCURVE",
"484 192 CURVE SMOOTH",
"484 700 LINE",
"296 700 LINE",
"296 194 LINE SMOOTH",
"296 169 OFFCURVE",
"279 152 OFFCURVE",
"254 152 CURVE SMOOTH",
"229 152 OFFCURVE",
"212 169 OFFCURVE",
"212 194 CURVE SMOOTH",
"212 265 LINE",
"24 265 LINE",
"24 192 LINE SMOOTH",
"24 72 OFFCURVE",
"116 -8 OFFCURVE",
"254 -8 CURVE SMOOTH"
);
}
);
width = 508;
}
);
unicode = 004A;
},
{
color = 1;
glyphname = K;
lastChange = "2016-10-23 02:47:51 +0000";
layers = (
{
layerId = "262880E7-CFE1-4BDA-902E-E24798F3240A";
paths = (
{
closed = 1;
nodes = (
"102 0 LINE",
"102 328 LINE",
"383 0 LINE",
"412 0 LINE",
"110 350 LINE",
"412 700 LINE",
"383 700 LINE",
"102 372 LINE",
"102 700 LINE",
"80 700 LINE",
"80 0 LINE"
);
}
);
width = 444;
},
{
layerId = "4E2227F3-52E4-4048-A8EE-327B486EF0A4";
paths = (
{
closed = 1;
nodes = (
"212 0 LINE",
"212 245 LINE",
"318 0 LINE",
"537 0 LINE",
"348 350 LINE",
"537 700 LINE",
"318 700 LINE",
"212 455 LINE",
"212 700 LINE",
"24 700 LINE",
"24 0 LINE"
);
}
);
width = 537;
}
);
unicode = 004B;
},
{
color = 1;
glyphname = L;
lastChange = "2016-10-23 02:47:51 +0000";
layers = (
{
layerId = "262880E7-CFE1-4BDA-902E-E24798F3240A";
paths = (
{
closed = 1;
nodes = (
"413 0 LINE",
"413 21 LINE",
"102 21 LINE",
"102 700 LINE",
"80 700 LINE",
"80 0 LINE"
);
}
);
width = 445;
},
{
layerId = "4E2227F3-52E4-4048-A8EE-327B486EF0A4";
paths = (
{
closed = 1;
nodes = (
"459 0 LINE",
"459 160 LINE",
"212 160 LINE",
"212 700 LINE",
"24 700 LINE",
"24 0 LINE"
);
}
);
width = 477;
}
);
unicode = 004C;
},
{
color = 1;
glyphname = M;
lastChange = "2016-10-23 02:47:51 +0000";
layers = (
{
layerId = "262880E7-CFE1-4BDA-902E-E24798F3240A";
paths = (
{
closed = 1;
nodes = (
"102 0 LINE",
"102 651 LINE",
"270 327 LINE",
"438 651 LINE",
"438 0 LINE",
"460 0 LINE",
"460 700 LINE",
"438 700 LINE",
"270 372 LINE",
"102 700 LINE",
"80 700 LINE",
"80 0 LINE"
);
}
);
width = 540;
},
{
layerId = "4E2227F3-52E4-4048-A8EE-327B486EF0A4";
paths = (
{
closed = 1;
nodes = (
"212 0 LINE",
"212 414 LINE",
"279 276 LINE",
"344 411 LINE",
"344 0 LINE",
"532 0 LINE",
"532 700 LINE",
"349 700 LINE",
"279 557 LINE",
"207 700 LINE",
"24 700 LINE",
"24 0 LINE"
);
}
);
width = 556;
},
{
associatedMasterId = "4E2227F3-52E4-4048-A8EE-327B486EF0A4";
layerId = "C6629B64-9ED2-4F57-9FC9-8668B05C088F";
name = "Regular{62,100}";
paths = (
{
closed = 1;
nodes = (
"148 0 LINE",
"148 558 LINE",
"288 285 LINE",
"428 557 LINE",
"428 0 LINE",
"490 0 LINE",
"490 700 LINE",
"428 700 LINE",
"288 416 LINE",
"148 700 LINE",
"86 700 LINE",
"86 0 LINE"
);
}
);
width = 566;
}
);
unicode = 004D;
},
{
color = 1;
glyphname = N;
lastChange = "2016-10-23 03:29:02 +0000";
layers = (
{
layerId = "262880E7-CFE1-4BDA-902E-E24798F3240A";
paths = (
{
closed = 1;
nodes = (
"102 0 LINE",
"102 647 LINE",
"424 0 LINE",
"446 0 LINE",
"446 700 LINE",
"424 700 LINE",
"424 53 LINE",
"102 700 LINE",
"80 700 LINE",
"80 0 LINE"
);
}
);
width = 526;
},
{
layerId = "4E2227F3-52E4-4048-A8EE-327B486EF0A4";
paths = (
{
closed = 1;
nodes = (
"212 0 LINE",
"210 346 LINE",
"320 0 LINE",
"528 0 LINE",
"528 700 LINE",
"340 700 LINE",
"342 356 LINE",
"232 700 LINE",
"24 700 LINE",
"24 0 LINE"
);
}
);
width = 552;
},
{
associatedMasterId = "4E2227F3-52E4-4048-A8EE-327B486EF0A4";
layerId = "3255EADC-07B8-4519-845B-D97716A0B38E";
name = "Bold{137,100}";
paths = (
{
closed = 1;
nodes = (
"178 0 LINE",
"177 409 LINE",
"364 0 LINE",
"503 0 LINE",
"503 700 LINE",
"366 700 LINE",
"367 282 LINE",
"180 700 LINE",
"41 700 LINE",
"41 0 LINE"
);
}
);
width = 544;
}
);
unicode = 004E;
},
{
color = 1;
glyphname = O;
lastChange = "2016-10-23 03:00:06 +0000";
layers = (
{
layerId = "262880E7-CFE1-4BDA-902E-E24798F3240A";
paths = (
{
closed = 1;
nodes = (
"355 -9 OFFCURVE",
"426 56 OFFCURVE",
"426 154 CURVE SMOOTH",
"426 546 LINE SMOOTH",
"426 644 OFFCURVE",
"355 709 OFFCURVE",
"245 709 CURVE SMOOTH",
"135 709 OFFCURVE",
"64 644 OFFCURVE",
"64 546 CURVE SMOOTH",
"64 154 LINE SMOOTH",
"64 56 OFFCURVE",
"135 -9 OFFCURVE",
"245 -9 CURVE SMOOTH"
);
},
{
closed = 1;
nodes = (
"148 12 OFFCURVE",
"86 68 OFFCURVE",
"86 152 CURVE SMOOTH",
"86 548 LINE SMOOTH",
"86 632 OFFCURVE",
"148 688 OFFCURVE",
"245 688 CURVE SMOOTH",
"342 688 OFFCURVE",
"404 632 OFFCURVE",
"404 548 CURVE SMOOTH",
"404 152 LINE SMOOTH",
"404 68 OFFCURVE",
"342 12 OFFCURVE",
"245 12 CURVE SMOOTH"
);
}
);
width = 490;
},
{
layerId = "4E2227F3-52E4-4048-A8EE-327B486EF0A4";
paths = (
{
closed = 1;
nodes = (
"406 -8 OFFCURVE",
"502 72 OFFCURVE",
"502 192 CURVE SMOOTH",
"502 508 LINE SMOOTH",
"502 628 OFFCURVE",
"406 708 OFFCURVE",
"261 708 CURVE SMOOTH",
"116 708 OFFCURVE",
"20 628 OFFCURVE",
"20 508 CURVE SMOOTH",
"20 192 LINE SMOOTH",
"20 72 OFFCURVE",
"116 -8 OFFCURVE",
"261 -8 CURVE SMOOTH"
);
},
{
closed = 1;
nodes = (
"229 152 OFFCURVE",
"208 174 OFFCURVE",
"208 206 CURVE SMOOTH",
"208 494 LINE SMOOTH",
"208 526 OFFCURVE",
"229 548 OFFCURVE",
"261 548 CURVE SMOOTH",
"293 548 OFFCURVE",
"314 526 OFFCURVE",
"314 494 CURVE SMOOTH",
"314 206 LINE SMOOTH",
"314 174 OFFCURVE",
"293 152 OFFCURVE",
"261 152 CURVE SMOOTH"
);
}
);
width = 522;
}
);
unicode = 004F;
},
{
color = 1;
glyphname = P;
lastChange = "2016-10-23 02:47:51 +0000";
layers = (
{
layerId = "262880E7-CFE1-4BDA-902E-E24798F3240A";
paths = (
{
closed = 1;
nodes = (
"103 0 LINE",
"103 680 LINE",
"280 680 LINE SMOOTH",
"364 680 OFFCURVE",
"420 616 OFFCURVE",
"420 520 CURVE SMOOTH",
"420 424 OFFCURVE",
"364 360 OFFCURVE",
"280 360 CURVE SMOOTH",
"98 360 LINE",
"98 340 LINE",
"278 340 LINE SMOOTH",
"376 340 OFFCURVE",
"441 411 OFFCURVE",
"441 520 CURVE SMOOTH",
"441 629 OFFCURVE",
"376 702 OFFCURVE",
"278 702 CURVE SMOOTH",
"80 702 LINE",
"80 0 LINE"
);
}
);
width = 481;
},
{
layerId = "4E2227F3-52E4-4048-A8EE-327B486EF0A4";
paths = (
{
closed = 1;
nodes = (
"212 0 LINE",
"212 540 LINE",
"247 540 LINE SMOOTH",
"279 540 OFFCURVE",
"301 514 OFFCURVE",
"301 476 CURVE SMOOTH",
"301 438 OFFCURVE",
"279 412 OFFCURVE",
"247 412 CURVE SMOOTH",
"196 412 LINE",
"196 256 LINE",
"279 256 LINE SMOOTH",
"405 256 OFFCURVE",
"489 346 OFFCURVE",
"489 476 CURVE SMOOTH",
"489 610 OFFCURVE",
"401 700 OFFCURVE",
"269 700 CURVE SMOOTH",
"24 700 LINE",
"24 0 LINE"
);
}
);
width = 501;
}
);
unicode = 0050;
},
{
color = 1;
glyphname = Q;
lastChange = "2016-10-23 03:26:51 +0000";
layers = (
{
layerId = "262880E7-CFE1-4BDA-902E-E24798F3240A";
paths = (
{
closed = 1;
nodes = (
"344 -9 OFFCURVE",
"414 56 OFFCURVE",
"414 154 CURVE SMOOTH",
"414 546 LINE SMOOTH",
"414 644 OFFCURVE",
"344 709 OFFCURVE",
"238 709 CURVE SMOOTH",
"132 709 OFFCURVE",
"62 644 OFFCURVE",
"62 546 CURVE SMOOTH",
"62 154 LINE SMOOTH",
"62 56 OFFCURVE",
"132 -9 OFFCURVE",
"238 -9 CURVE SMOOTH"
);
},
{
closed = 1;
nodes = (
"145 12 OFFCURVE",
"84 68 OFFCURVE",
"84 152 CURVE SMOOTH",
"84 548 LINE SMOOTH",
"84 632 OFFCURVE",
"145 688 OFFCURVE",
"238 688 CURVE SMOOTH",
"331 688 OFFCURVE",
"392 632 OFFCURVE",
"392 548 CURVE SMOOTH",
"392 152 LINE SMOOTH",
"392 68 OFFCURVE",
"331 12 OFFCURVE",
"238 12 CURVE SMOOTH"
);
},
{
closed = 1;
nodes = (
"373 -51 LINE",
"174 16 LINE",
"174 0 LINE",
"373 -72 LINE"
);
}
);
width = 490;
},
{
layerId = "4E2227F3-52E4-4048-A8EE-327B486EF0A4";
paths = (
{
closed = 1;
nodes = (
"401 -8 OFFCURVE",
"495 72 OFFCURVE",
"495 192 CURVE SMOOTH",
"495 508 LINE SMOOTH",
"495 628 OFFCURVE",
"401 708 OFFCURVE",
"259 708 CURVE SMOOTH",
"117 708 OFFCURVE",
"23 628 OFFCURVE",
"23 508 CURVE SMOOTH",
"23 192 LINE SMOOTH",
"23 72 OFFCURVE",
"117 -8 OFFCURVE",
"259 -8 CURVE SMOOTH"
);
},
{
closed = 1;
nodes = (
"230 152 OFFCURVE",
"211 172 OFFCURVE",
"211 203 CURVE SMOOTH",
"211 497 LINE SMOOTH",
"211 528 OFFCURVE",
"230 548 OFFCURVE",
"259 548 CURVE SMOOTH",
"288 548 OFFCURVE",
"307 528 OFFCURVE",
"307 497 CURVE SMOOTH",
"307 203 LINE SMOOTH",
"307 172 OFFCURVE",
"288 152 OFFCURVE",
"259 152 CURVE SMOOTH"
);
},
{
closed = 1;
nodes = (
"489 81 LINE",
"181 106 LINE",
"184 1 LINE",
"465 -53 LINE"
);
}
);
width = 519;
}
);
unicode = 0051;
},
{
color = 1;
glyphname = R;
lastChange = "2016-10-23 03:27:43 +0000";
layers = (
{
layerId = "262880E7-CFE1-4BDA-902E-E24798F3240A";
paths = (
{
closed = 1;
nodes = (
"103 0 LINE",
"103 680 LINE",
"284 680 LINE SMOOTH",
"368 680 OFFCURVE",
"424 616 OFFCURVE",
"424 520 CURVE SMOOTH",
"424 424 OFFCURVE",
"368 360 OFFCURVE",
"284 360 CURVE SMOOTH",
"98 360 LINE",
"98 340 LINE",
"282 340 LINE SMOOTH",
"380 340 OFFCURVE",
"445 411 OFFCURVE",
"445 520 CURVE SMOOTH",
"445 629 OFFCURVE",
"380 702 OFFCURVE",
"282 702 CURVE SMOOTH",
"80 702 LINE",
"80 0 LINE"
);
},
{
closed = 1;
nodes = (
"423 0 LINE",
"302 349 LINE",
"284 341 LINE",
"401 0 LINE"
);
}
);
width = 501;
},
{
layerId = "4E2227F3-52E4-4048-A8EE-327B486EF0A4";
paths = (
{
closed = 1;
nodes = (
"212 0 LINE",
"212 540 LINE",
"260 540 LINE SMOOTH",
"292 540 OFFCURVE",
"314 514 OFFCURVE",
"314 476 CURVE SMOOTH",
"314 438 OFFCURVE",
"292 412 OFFCURVE",
"260 412 CURVE SMOOTH",
"196 412 LINE",
"196 256 LINE",
"292 256 LINE SMOOTH",
"418 256 OFFCURVE",
"502 346 OFFCURVE",
"502 476 CURVE SMOOTH",
"502 610 OFFCURVE",
"414 700 OFFCURVE",
"282 700 CURVE SMOOTH",
"24 700 LINE",
"24 0 LINE"
);
},
{
closed = 1;
nodes = (
"503 0 LINE",
"409 338 LINE",
"231 338 LINE",
"309 0 LINE"
);
}
);
width = 515;
}
);
unicode = 0052;
},
{
color = 1;
glyphname = S;
lastChange = "2016-10-23 02:47:51 +0000";
layers = (
{
layerId = "262880E7-CFE1-4BDA-902E-E24798F3240A";
paths = (
{
closed = 1;
nodes = (
"326 -9 OFFCURVE",
"390 49 OFFCURVE",
"390 149 CURVE SMOOTH",
"390 254 OFFCURVE",
"307 307 OFFCURVE",
"225 359 CURVE SMOOTH",
"147 409 OFFCURVE",
"70 457 OFFCURVE",
"70 550 CURVE SMOOTH",
"70 637 OFFCURVE",
"124 688 OFFCURVE",
"216 688 CURVE SMOOTH",
"308 688 OFFCURVE",
"362 636 OFFCURVE",
"362 548 CURVE SMOOTH",
"362 500 LINE",
"384 500 LINE",
"384 549 LINE SMOOTH",
"384 650 OFFCURVE",
"322 709 OFFCURVE",
"216 709 CURVE SMOOTH",
"110 709 OFFCURVE",
"48 651 OFFCURVE",
"48 552 CURVE SMOOTH",
"48 448 OFFCURVE",
"131 395 OFFCURVE",
"212 343 CURVE SMOOTH",
"291 293 OFFCURVE",
"368 243 OFFCURVE",
"368 149 CURVE SMOOTH",
"368 63 OFFCURVE",
"312 12 OFFCURVE",
"217 12 CURVE SMOOTH",
"124 12 OFFCURVE",
"70 63 OFFCURVE",
"70 151 CURVE SMOOTH",
"70 210 LINE",
"50 210 LINE",
"50 150 LINE SMOOTH",
"50 50 OFFCURVE",
"112 -9 OFFCURVE",
"218 -9 CURVE SMOOTH"
);
}
);
width = 438;
},
{
layerId = "4E2227F3-52E4-4048-A8EE-327B486EF0A4";
paths = (
{
closed = 1;
nodes = (
"367 -4 OFFCURVE",
"456 74 OFFCURVE",
"456 189 CURVE SMOOTH",
"456 291 OFFCURVE",
"387 341 OFFCURVE",
"284 412 CURVE SMOOTH",
"214 460 OFFCURVE",
"197 473 OFFCURVE",
"197 506 CURVE SMOOTH",
"197 529 OFFCURVE",
"210 544 OFFCURVE",
"230 544 CURVE SMOOTH",
"252 544 OFFCURVE",
"266 530 OFFCURVE",
"266 510 CURVE SMOOTH",
"266 490 LINE",
"451 490 LINE",
"451 505 LINE SMOOTH",
"451 624 OFFCURVE",
"364 704 OFFCURVE",
"232 704 CURVE SMOOTH",
"99 704 OFFCURVE",
"12 624 OFFCURVE",
"12 507 CURVE SMOOTH",
"12 384 OFFCURVE",
"108 320 OFFCURVE",
"182 272 CURVE SMOOTH",
"255 224 OFFCURVE",
"271 213 OFFCURVE",
"271 188 CURVE SMOOTH",
"271 169 OFFCURVE",
"257 156 OFFCURVE",
"237 156 CURVE SMOOTH",
"216 156 OFFCURVE",
"202 170 OFFCURVE",
"202 192 CURVE SMOOTH",
"202 211 LINE",
"17 211 LINE",
"17 184 LINE SMOOTH",
"17 74 OFFCURVE",
"102 -4 OFFCURVE",
"234 -4 CURVE SMOOTH"
);
}
);
width = 468;
}
);
unicode = 0053;
},
{
color = 1;
glyphname = T;
lastChange = "2016-10-23 02:47:51 +0000";
layers = (
{
layerId = "262880E7-CFE1-4BDA-902E-E24798F3240A";
paths = (
{
closed = 1;
nodes = (
"216 0 LINE",
"216 689 LINE",
"194 689 LINE",
"194 0 LINE"
);
},
{
closed = 1;
nodes = (
"394 679 LINE",
"394 700 LINE",
"24 700 LINE",
"24 679 LINE"
);
}
);
width = 418;
},
{
layerId = "4E2227F3-52E4-4048-A8EE-327B486EF0A4";
paths = (
{
closed = 1;
nodes = (
"332 0 LINE",
"332 689 LINE",
"144 689 LINE",
"144 0 LINE"
);
},
{
closed = 1;
nodes = (
"474 540 LINE",
"474 700 LINE",
"6 700 LINE",
"6 540 LINE"
);
}
);
width = 480;
}
);
unicode = 0054;
},
{
color = 1;
glyphname = U;
lastChange = "2016-10-23 03:31:26 +0000";
layers = (
{
layerId = "262880E7-CFE1-4BDA-902E-E24798F3240A";
paths = (
{
closed = 1;
nodes = (
"370 -9 OFFCURVE",
"442 59 OFFCURVE",
"442 160 CURVE SMOOTH",
"442 700 LINE",
"420 700 LINE",
"420 156 LINE SMOOTH",
"420 70 OFFCURVE",
"356 12 OFFCURVE",
"261 12 CURVE SMOOTH",
"166 12 OFFCURVE",
"102 70 OFFCURVE",
"102 156 CURVE SMOOTH",
"102 700 LINE",
"80 700 LINE",
"80 160 LINE SMOOTH",
"80 59 OFFCURVE",
"152 -9 OFFCURVE",
"261 -9 CURVE SMOOTH"
);
}
);
width = 522;
},
{
layerId = "4E2227F3-52E4-4048-A8EE-327B486EF0A4";
paths = (
{
closed = 1;
nodes = (
"389 -8 OFFCURVE",
"482 72 OFFCURVE",
"482 192 CURVE SMOOTH",
"482 700 LINE",
"294 700 LINE",
"294 198 LINE SMOOTH",
"294 170 OFFCURVE",
"276 152 OFFCURVE",
"250 152 CURVE SMOOTH",
"224 152 OFFCURVE",
"206 170 OFFCURVE",
"206 198 CURVE SMOOTH",
"206 700 LINE",
"18 700 LINE",
"18 192 LINE SMOOTH",
"18 72 OFFCURVE",
"111 -8 OFFCURVE",
"250 -8 CURVE SMOOTH"
);
}
);
width = 500;
}
);
unicode = 0055;
},
{
color = 1;
glyphname = V;
lastChange = "2016-10-23 03:24:22 +0000";
layers = (
{
layerId = "262880E7-CFE1-4BDA-902E-E24798F3240A";
paths = (
{
closed = 1;
nodes = (
"235 0 LINE",
"436 700 LINE",
"414 700 LINE",
"224 42 LINE",
"34 700 LINE",
"12 700 LINE",
"213 0 LINE"
);
}
);
width = 448;
},
{
layerId = "4E2227F3-52E4-4048-A8EE-327B486EF0A4";
paths = (
{
closed = 1;
nodes = (
"366 0 LINE",
"534 700 LINE",
"346 700 LINE",
"270 251 LINE",
"188 700 LINE",
"0 700 LINE",
"168 0 LINE"
);
}
);
width = 534;
}
);
unicode = 0056;
},
{
color = 1;
glyphname = W;
lastChange = "2016-10-23 03:24:38 +0000";
layers = (
{
layerId = "262880E7-CFE1-4BDA-902E-E24798F3240A";
paths = (
{
closed = 1;
nodes = (
"189 0 LINE",
"338 657 LINE",
"483 0 LINE",
"505 0 LINE",
"662 700 LINE",
"640 700 LINE",
"495 40 LINE",
"346 700 LINE",
"328 700 LINE",
"179 40 LINE",
"34 700 LINE",
"12 700 LINE",
"167 0 LINE"
);
}
);
width = 674;
},
{
layerId = "4E2227F3-52E4-4048-A8EE-327B486EF0A4";
paths = (
{
closed = 1;
nodes = (
"297 0 LINE",
"345 362 LINE",
"389 0 LINE",
"556 0 LINE",
"691 700 LINE",
"503 700 LINE",
"473 342 LINE",
"423 700 LINE",
"270 700 LINE",
"220 342 LINE",
"190 700 LINE",
"0 700 LINE",
"135 0 LINE"
);
}
);
width = 691;
}
);
unicode = 0057;
},
{
color = 1;
glyphname = X;
lastChange = "2016-10-23 03:24:29 +0000";
layers = (
{
layerId = "262880E7-CFE1-4BDA-902E-E24798F3240A";
paths = (
{
closed = 1;
nodes = (
"37 0 LINE",
"212 330 LINE",
"387 0 LINE",
"412 0 LINE",
"223 349 LINE",
"412 700 LINE",
"387 700 LINE",
"212 369 LINE",
"37 700 LINE",
"12 700 LINE",
"201 350 LINE",
"12 0 LINE"
);
}
);
width = 424;
},
{
layerId = "4E2227F3-52E4-4048-A8EE-327B486EF0A4";
paths = (
{
closed = 1;
nodes = (
"189 0 LINE",
"245 162 LINE",
"300 0 LINE",
"491 0 LINE",
"344 350 LINE",
"491 700 LINE",
"299 700 LINE",
"245 537 LINE",
"190 700 LINE",
"-2 700 LINE",
"145 350 LINE",
"-2 0 LINE"
);
}
);
width = 489;
}
);
unicode = 0058;
},
{
color = 1;
glyphname = Y;
lastChange = "2016-10-23 03:24:32 +0000";
layers = (
{
layerId = "262880E7-CFE1-4BDA-902E-E24798F3240A";
paths = (
{
closed = 1;
nodes = (
"219 0 LINE",
"219 339 LINE",
"404 700 LINE",
"382 700 LINE",
"208 358 LINE",
"34 700 LINE",
"12 700 LINE",
"197 339 LINE",
"197 0 LINE"
);
}
);
width = 416;
},
{
layerId = "4E2227F3-52E4-4048-A8EE-327B486EF0A4";
paths = (
{
closed = 1;
nodes = (
"352 2 LINE",
"352 257 LINE",
"517 700 LINE",
"327 700 LINE",
"259 462 LINE",
"190 700 LINE",
"0 700 LINE",
"164 257 LINE",
"164 2 LINE"
);
}
);
width = 517;
},
{
associatedMasterId = "262880E7-CFE1-4BDA-902E-E24798F3240A";
layerId = "394D83DF-4BD1-4276-9A3C-19912AD5F0BB";
name = "Oct 20 16, 01:26";
paths = (
{
closed = 1;
nodes = (
"404 700 LINE",
"382 700 LINE",
"208 360 LINE",
"34 700 LINE",
"12 700 LINE",
"208 318 LINE"
);
},
{
closed = 1;
nodes = (
"219 0 LINE",
"219 350 LINE",
"197 350 LINE",
"197 0 LINE"
);
}
);
width = 416;
}
);
unicode = 0059;
},
{
color = 1;
glyphname = Z;
lastChange = "2016-10-23 03:02:38 +0000";
layers = (
{
layerId = "262880E7-CFE1-4BDA-902E-E24798F3240A";
paths = (
{
closed = 1;
nodes = (
"388 0 LINE",
"388 21 LINE",
"65 21 LINE",
"388 679 LINE",
"388 700 LINE",
"40 700 LINE",
"40 679 LINE",
"364 679 LINE",
"40 21 LINE",
"40 0 LINE"
);
}
);
width = 428;
},
{
layerId = "4E2227F3-52E4-4048-A8EE-327B486EF0A4";
paths = (
{
closed = 1;
nodes = (
"416 0 LINE",
"416 160 LINE",
"176 160 LINE",
"416 540 LINE",
"416 700 LINE",
"6 700 LINE",
"6 540 LINE",
"245 540 LINE",
"6 160 LINE",
"6 0 LINE"
);
}
);
width = 422;
}
);
unicode = 005A;
},
{
color = 1;
glyphname = a;
lastChange = "2016-10-23 02:47:51 +0000";
layers = (
{
layerId = "262880E7-CFE1-4BDA-902E-E24798F3240A";
paths = (
{
closed = 1;
nodes = (
"322 -5 OFFCURVE",
"387 56 OFFCURVE",
"387 161 CURVE SMOOTH",
"387 339 LINE SMOOTH",
"387 438 OFFCURVE",
"328 505 OFFCURVE",
"222 505 CURVE SMOOTH",
"119 505 OFFCURVE",
"56 442 OFFCURVE",
"56 339 CURVE SMOOTH",
"56 161 LINE SMOOTH",
"56 58 OFFCURVE",
"121 -5 OFFCURVE",
"224 -5 CURVE SMOOTH"
);
},
{
closed = 1;
nodes = (
"133 16 OFFCURVE",
"78 70 OFFCURVE",
"78 158 CURVE SMOOTH",
"78 342 LINE SMOOTH",
"78 430 OFFCURVE",
"133 484 OFFCURVE",
"223 484 CURVE SMOOTH",
"313 484 OFFCURVE",
"368 430 OFFCURVE",
"368 342 CURVE SMOOTH",
"368 158 LINE SMOOTH",
"368 70 OFFCURVE",
"313 16 OFFCURVE",
"223 16 CURVE SMOOTH"
);
},
{
closed = 1;
nodes = (
"390 0 LINE",
"390 500 LINE",
"368 500 LINE",
"368 0 LINE"
);
}
);
width = 462;
},
{
layerId = "4E2227F3-52E4-4048-A8EE-327B486EF0A4";
paths = (
{
closed = 1;
nodes = (
"272 -4 OFFCURVE",
"339 73 OFFCURVE",
"339 178 CURVE SMOOTH",
"339 322 LINE SMOOTH",
"339 427 OFFCURVE",
"272 504 OFFCURVE",
"159 504 CURVE SMOOTH",
"79 504 OFFCURVE",
"12 465 OFFCURVE",
"12 358 CURVE SMOOTH",
"12 142 LINE SMOOTH",
"12 35 OFFCURVE",
"79 -4 OFFCURVE",
"159 -4 CURVE SMOOTH"
);
},
{
closed = 1;
nodes = (
"212 146 OFFCURVE",
"200 158 OFFCURVE",
"200 178 CURVE SMOOTH",
"200 322 LINE SMOOTH",
"200 342 OFFCURVE",
"212 354 OFFCURVE",
"229 354 CURVE SMOOTH",
"246 354 OFFCURVE",
"258 342 OFFCURVE",
"258 322 CURVE",
"258 178 LINE",
"258 158 OFFCURVE",
"246 146 OFFCURVE",
"229 146 CURVE SMOOTH"
);
},
{
closed = 1;
nodes = (
"446 1 LINE",
"446 501 LINE",
"258 501 LINE",
"258 1 LINE"
);
}
);
width = 464;
}
);
unicode = 0061;
},
{
color = 1;
glyphname = b;
lastChange = "2016-10-23 02:47:51 +0000";
layers = (
{
layerId = "262880E7-CFE1-4BDA-902E-E24798F3240A";
paths = (
{
closed = 1;
nodes = (
"341 -5 OFFCURVE",
"406 58 OFFCURVE",
"406 161 CURVE SMOOTH",
"406 339 LINE SMOOTH",
"406 442 OFFCURVE",
"343 505 OFFCURVE",
"240 505 CURVE SMOOTH",
"138 505 OFFCURVE",
"75 442 OFFCURVE",
"75 339 CURVE SMOOTH",
"75 161 LINE SMOOTH",
"75 58 OFFCURVE",
"136 -5 OFFCURVE",
"238 -5 CURVE SMOOTH"
);
},
{
closed = 1;
nodes = (
"149 16 OFFCURVE",
"94 69 OFFCURVE",
"94 158 CURVE SMOOTH",
"94 342 LINE SMOOTH",
"94 430 OFFCURVE",
"149 484 OFFCURVE",
"239 484 CURVE SMOOTH",
"329 484 OFFCURVE",
"384 430 OFFCURVE",
"384 342 CURVE SMOOTH",
"384 158 LINE SMOOTH",
"384 70 OFFCURVE",
"329 16 OFFCURVE",
"239 16 CURVE SMOOTH"
);
},
{
closed = 1;
nodes = (
"94 0 LINE",
"94 700 LINE",
"72 700 LINE",
"72 0 LINE"
);
}
);
width = 470;
},
{
layerId = "4E2227F3-52E4-4048-A8EE-327B486EF0A4";
paths = (
{
closed = 1;
nodes = (
"385 -4 OFFCURVE",
"452 35 OFFCURVE",
"452 142 CURVE SMOOTH",
"452 358 LINE SMOOTH",
"452 465 OFFCURVE",
"385 504 OFFCURVE",
"305 504 CURVE SMOOTH",
"192 504 OFFCURVE",
"125 427 OFFCURVE",
"125 322 CURVE SMOOTH",
"125 178 LINE SMOOTH",
"125 73 OFFCURVE",
"192 -4 OFFCURVE",
"305 -4 CURVE SMOOTH"
);
},
{
closed = 1;
nodes = (
"218 146 OFFCURVE",
"206 158 OFFCURVE",
"206 178 CURVE",
"206 322 LINE",
"206 342 OFFCURVE",
"218 354 OFFCURVE",
"235 354 CURVE SMOOTH",
"252 354 OFFCURVE",
"264 342 OFFCURVE",
"264 322 CURVE SMOOTH",
"264 178 LINE SMOOTH",
"264 158 OFFCURVE",
"252 146 OFFCURVE",
"235 146 CURVE SMOOTH"
);
},
{
closed = 1;
nodes = (
"206 1 LINE",
"206 701 LINE",
"18 701 LINE",
"18 1 LINE"
);
}
);
width = 470;
}
);
unicode = 0062;
},
{
color = 1;
glyphname = c;
lastChange = "2016-10-23 02:47:51 +0000";
layers = (
{
layerId = "262880E7-CFE1-4BDA-902E-E24798F3240A";
paths = (
{
closed = 1;
nodes = (
"336 -5 OFFCURVE",
"404 61 OFFCURVE",
"404 161 CURVE SMOOTH",
"404 162 LINE",
"382 162 LINE",
"382 158 LINE SMOOTH",
"382 73 OFFCURVE",
"322 16 OFFCURVE",
"234 16 CURVE SMOOTH",
"146 16 OFFCURVE",
"86 73 OFFCURVE",
"86 158 CURVE SMOOTH",
"86 342 LINE SMOOTH",
"86 427 OFFCURVE",
"146 484 OFFCURVE",
"234 484 CURVE SMOOTH",
"322 484 OFFCURVE",
"382 427 OFFCURVE",
"382 342 CURVE SMOOTH",
"382 338 LINE",
"404 338 LINE",
"404 339 LINE SMOOTH",
"404 439 OFFCURVE",
"336 505 OFFCURVE",
"234 505 CURVE SMOOTH",
"132 505 OFFCURVE",
"64 439 OFFCURVE",
"64 339 CURVE SMOOTH",
"64 161 LINE SMOOTH",
"64 61 OFFCURVE",
"132 -5 OFFCURVE",
"234 -5 CURVE SMOOTH"
);
}
);
width = 444;
},
{
layerId = "4E2227F3-52E4-4048-A8EE-327B486EF0A4";
paths = (
{
closed = 1;
nodes = (
"363 -4 OFFCURVE",
"446 72 OFFCURVE",
"446 185 CURVE SMOOTH",
"446 222 LINE",
"258 222 LINE",
"258 178 LINE SMOOTH",
"258 159 OFFCURVE",
"246 146 OFFCURVE",
"229 146 CURVE SMOOTH",
"212 146 OFFCURVE",
"200 159 OFFCURVE",
"200 178 CURVE SMOOTH",
"200 322 LINE SMOOTH",
"200 341 OFFCURVE",
"212 354 OFFCURVE",
"229 354 CURVE SMOOTH",
"246 354 OFFCURVE",
"258 341 OFFCURVE",
"258 322 CURVE SMOOTH",
"258 279 LINE",
"446 278 LINE",
"446 315 LINE SMOOTH",
"446 428 OFFCURVE",
"363 504 OFFCURVE",
"229 504 CURVE SMOOTH",
"95 504 OFFCURVE",
"12 428 OFFCURVE",
"12 315 CURVE SMOOTH",
"12 185 LINE SMOOTH",
"12 72 OFFCURVE",
"95 -4 OFFCURVE",
"229 -4 CURVE SMOOTH"
);
}
);
width = 458;
},
{
associatedMasterId = "262880E7-CFE1-4BDA-902E-E24798F3240A";
layerId = "AA68AA89-7B7F-412A-BC4D-3A50F432D1F5";
name = "Medium {85,100}";
paths = (
{
closed = 1;
nodes = (
"349 -5 OFFCURVE",
"422 65 OFFCURVE",
"422 170 CURVE SMOOTH",
"422 185 LINE",
"338 185 LINE",
"338 176 LINE SMOOTH",
"338 115 OFFCURVE",
"296 75 OFFCURVE",
"234 75 CURVE SMOOTH",
"172 75 OFFCURVE",
"130 115 OFFCURVE",
"130 176 CURVE SMOOTH",
"130 324 LINE SMOOTH",
"130 385 OFFCURVE",
"172 425 OFFCURVE",
"234 425 CURVE SMOOTH",
"296 425 OFFCURVE",
"338 385 OFFCURVE",
"338 324 CURVE SMOOTH",
"338 316 LINE",
"422 315 LINE",
"422 330 LINE SMOOTH",
"422 435 OFFCURVE",
"349 505 OFFCURVE",
"234 505 CURVE SMOOTH",
"119 505 OFFCURVE",
"46 435 OFFCURVE",
"46 330 CURVE SMOOTH",
"46 170 LINE SMOOTH",
"46 65 OFFCURVE",
"119 -5 OFFCURVE",
"234 -5 CURVE SMOOTH"
);
}
);
width = 453;
}
);
unicode = 0063;
},
{
color = 1;
glyphname = d;
lastChange = "2016-10-23 02:47:51 +0000";
layers = (
{
layerId = "262880E7-CFE1-4BDA-902E-E24798F3240A";
paths = (
{
closed = 1;
nodes = (
"331 -5 OFFCURVE",
"395 58 OFFCURVE",
"395 161 CURVE SMOOTH",
"395 339 LINE SMOOTH",
"395 442 OFFCURVE",
"332 505 OFFCURVE",
"230 505 CURVE SMOOTH",
"127 505 OFFCURVE",
"64 442 OFFCURVE",
"64 339 CURVE SMOOTH",
"64 161 LINE SMOOTH",
"64 58 OFFCURVE",
"128 -5 OFFCURVE",
"231 -5 CURVE SMOOTH"
);
},
{
closed = 1;
nodes = (
"141 16 OFFCURVE",
"86 70 OFFCURVE",
"86 158 CURVE SMOOTH",
"86 342 LINE SMOOTH",
"86 430 OFFCURVE",
"141 484 OFFCURVE",
"231 484 CURVE SMOOTH",
"321 484 OFFCURVE",
"376 430 OFFCURVE",
"376 342 CURVE SMOOTH",
"376 158 LINE SMOOTH",
"376 69 OFFCURVE",
"321 16 OFFCURVE",
"231 16 CURVE SMOOTH"
);
},
{
closed = 1;
nodes = (
"398 0 LINE",
"398 700 LINE",
"376 700 LINE",
"376 0 LINE"
);
}
);
width = 470;
},
{
layerId = "4E2227F3-52E4-4048-A8EE-327B486EF0A4";
paths = (
{
closed = 1;
nodes = (
"278 -4 OFFCURVE",
"345 73 OFFCURVE",
"345 178 CURVE SMOOTH",
"345 322 LINE SMOOTH",
"345 427 OFFCURVE",
"278 504 OFFCURVE",
"165 504 CURVE SMOOTH",
"85 504 OFFCURVE",
"18 465 OFFCURVE",
"18 358 CURVE SMOOTH",
"18 142 LINE SMOOTH",
"18 35 OFFCURVE",
"85 -4 OFFCURVE",
"165 -4 CURVE SMOOTH"
);
},
{
closed = 1;
nodes = (
"218 146 OFFCURVE",
"206 158 OFFCURVE",
"206 178 CURVE SMOOTH",
"206 322 LINE SMOOTH",
"206 342 OFFCURVE",
"218 354 OFFCURVE",
"235 354 CURVE SMOOTH",
"252 354 OFFCURVE",
"264 342 OFFCURVE",
"264 322 CURVE",
"264 178 LINE",
"264 158 OFFCURVE",
"252 146 OFFCURVE",
"235 146 CURVE SMOOTH"
);
},
{
closed = 1;
nodes = (
"452 1 LINE",
"452 701 LINE",
"264 701 LINE",
"264 1 LINE"
);
}
);
width = 470;
}
);
unicode = 0064;
},
{
color = 1;
glyphname = e;
lastChange = "2016-10-23 02:47:51 +0000";
layers = (
{
layerId = "262880E7-CFE1-4BDA-902E-E24798F3240A";
paths = (
{
closed = 1;
nodes = (
"330 -5 OFFCURVE",
"395 51 OFFCURVE",
"405 139 CURVE",
"405 141 LINE",
"383 141 LINE",
"383 139 LINE",
"375 64 OFFCURVE",
"318 16 OFFCURVE",
"235 16 CURVE SMOOTH",
"145 16 OFFCURVE",
"86 73 OFFCURVE",
"86 158 CURVE SMOOTH",
"86 342 LINE SMOOTH",
"86 427 OFFCURVE",
"145 484 OFFCURVE",
"235 484 CURVE SMOOTH",
"325 484 OFFCURVE",
"384 427 OFFCURVE",
"384 342 CURVE SMOOTH",
"384 260 LINE",
"81 260 LINE",
"81 239 LINE",
"406 239 LINE",
"406 339 LINE SMOOTH",
"406 439 OFFCURVE",
"338 505 OFFCURVE",
"235 505 CURVE SMOOTH",
"132 505 OFFCURVE",
"64 439 OFFCURVE",
"64 339 CURVE SMOOTH",
"64 161 LINE SMOOTH",
"64 61 OFFCURVE",
"132 -5 OFFCURVE",
"235 -5 CURVE SMOOTH"
);
}
);
width = 462;
},
{
layerId = "4E2227F3-52E4-4048-A8EE-327B486EF0A4";
paths = (
{
closed = 1;
nodes = (
"363 -4 OFFCURVE",
"446 72 OFFCURVE",
"446 185 CURVE SMOOTH",
"446 186 LINE",
"258 186 LINE",
"258 178 LINE SMOOTH",
"258 159 OFFCURVE",
"246 146 OFFCURVE",
"229 146 CURVE SMOOTH",
"212 146 OFFCURVE",
"200 159 OFFCURVE",
"200 178 CURVE SMOOTH",
"200 322 LINE SMOOTH",
"200 341 OFFCURVE",
"212 354 OFFCURVE",
"229 354 CURVE SMOOTH",
"246 354 OFFCURVE",
"258 341 OFFCURVE",
"258 322 CURVE SMOOTH",
"258 293 LINE",
"181 293 LINE",
"181 213 LINE",
"446 213 LINE",
"446 315 LINE SMOOTH",
"446 428 OFFCURVE",
"363 504 OFFCURVE",
"229 504 CURVE SMOOTH",
"95 504 OFFCURVE",
"12 428 OFFCURVE",
"12 315 CURVE SMOOTH",
"12 185 LINE SMOOTH",
"12 72 OFFCURVE",
"95 -4 OFFCURVE",
"229 -4 CURVE SMOOTH"
);
}
);
width = 458;
},
{
associatedMasterId = "4E2227F3-52E4-4048-A8EE-327B486EF0A4";
layerId = "F43F543C-68B1-49FC-928D-4F50CE8623A2";
name = "Medium{85,100}";
paths = (
{
closed = 1;
nodes = (
"352 -5 OFFCURVE",
"425 65 OFFCURVE",
"425 170 CURVE SMOOTH",
"425 171 LINE",
"341 171 LINE",
"341 166 LINE SMOOTH",
"341 105 OFFCURVE",
"300 65 OFFCURVE",
"237 65 CURVE SMOOTH",
"174 65 OFFCURVE",
"133 105 OFFCURVE",
"133 166 CURVE SMOOTH",
"133 334 LINE SMOOTH",
"133 395 OFFCURVE",
"174 435 OFFCURVE",
"237 435 CURVE SMOOTH",
"300 435 OFFCURVE",
"341 395 OFFCURVE",
"341 334 CURVE SMOOTH",
"341 292 LINE",
"117 292 LINE",
"117 217 LINE",
"425 217 LINE",
"425 330 LINE SMOOTH",
"425 435 OFFCURVE",
"352 505 OFFCURVE",
"237 505 CURVE SMOOTH",
"122 505 OFFCURVE",
"49 435 OFFCURVE",
"49 330 CURVE SMOOTH",
"49 170 LINE SMOOTH",
"49 65 OFFCURVE",
"122 -5 OFFCURVE",
"237 -5 CURVE SMOOTH"
);
}
);
width = 467;
}
);
unicode = 0065;
},
{
color = 1;
glyphname = f;
lastChange = "2016-10-23 02:47:51 +0000";
layers = (
{
layerId = "262880E7-CFE1-4BDA-902E-E24798F3240A";
paths = (
{
closed = 1;
nodes = (
"118 0 LINE",
"118 550 LINE SMOOTH",
"118 637 OFFCURVE",
"171 689 OFFCURVE",
"267 689 CURVE",
"267 710 LINE",
"157 710 OFFCURVE",
"96 650 OFFCURVE",
"96 550 CURVE SMOOTH",
"96 0 LINE"
);
},
{
closed = 1;
nodes = (
"237 479 LINE",
"237 500 LINE",
"17 500 LINE",
"17 479 LINE"
);
}
);
width = 261;
},
{
layerId = "4E2227F3-52E4-4048-A8EE-327B486EF0A4";
paths = (
{
closed = 1;
nodes = (
"242 0 LINE",
"242 532 LINE",
"242 552 OFFCURVE",
"264 558 OFFCURVE",
"286 558 CURVE",
"286 700 LINE",
"138 707 OFFCURVE",
"54 697 OFFCURVE",
"54 556 CURVE",
"54 0 LINE"
);
},
{
closed = 1;
nodes = (
"306 340 LINE",
"306 500 LINE",
"0 500 LINE",
"0 340 LINE"
);
}
);
width = 318;
}
);
unicode = 0066;
},
{
color = 1;
glyphname = g;
lastChange = "2016-10-23 02:47:51 +0000";
layers = (
{
layerId = "262880E7-CFE1-4BDA-902E-E24798F3240A";
paths = (
{
closed = 1;
nodes = (
"141 16 OFFCURVE",
"86 70 OFFCURVE",
"86 158 CURVE SMOOTH",
"86 342 LINE SMOOTH",
"86 430 OFFCURVE",
"141 484 OFFCURVE",
"231 484 CURVE SMOOTH",
"321 484 OFFCURVE",
"376 429 OFFCURVE",
"376 342 CURVE SMOOTH",
"376 158 LINE SMOOTH",
"376 70 OFFCURVE",
"321 16 OFFCURVE",
"231 16 CURVE SMOOTH"
);
},
{
closed = 1;
nodes = (
"332 -5 OFFCURVE",
"395 58 OFFCURVE",
"395 161 CURVE SMOOTH",
"395 339 LINE SMOOTH",
"395 442 OFFCURVE",
"332 505 OFFCURVE",
"230 505 CURVE SMOOTH",
"127 505 OFFCURVE",
"64 442 OFFCURVE",
"64 339 CURVE SMOOTH",
"64 161 LINE SMOOTH",
"64 58 OFFCURVE",
"127 -5 OFFCURVE",
"230 -5 CURVE SMOOTH"
);
},
{
closed = 1;
nodes = (
"325 -206 OFFCURVE",
"398 -140 OFFCURVE",
"398 0 CURVE SMOOTH",
"398 500 LINE",
"376 500 LINE",
"376 0 LINE SMOOTH",
"376 -126 OFFCURVE",
"310 -185 OFFCURVE",
"191 -181 CURVE",
"191 -202 LINE"
);
}
);
width = 470;
},
{
layerId = "4E2227F3-52E4-4048-A8EE-327B486EF0A4";
paths = (
{
closed = 1;
nodes = (
"218 151 OFFCURVE",
"206 163 OFFCURVE",
"206 183 CURVE SMOOTH",
"206 322 LINE SMOOTH",
"206 342 OFFCURVE",
"218 354 OFFCURVE",
"235 354 CURVE SMOOTH",
"252 354 OFFCURVE",
"264 342 OFFCURVE",
"264 322 CURVE",
"264 183 LINE",
"264 163 OFFCURVE",
"252 151 OFFCURVE",
"235 151 CURVE SMOOTH"
);
},
{
closed = 1;
nodes = (
"288 1 OFFCURVE",
"345 98 OFFCURVE",
"345 203 CURVE SMOOTH",
"345 322 LINE SMOOTH",
"345 427 OFFCURVE",
"278 504 OFFCURVE",
"165 504 CURVE SMOOTH",
"85 504 OFFCURVE",
"18 465 OFFCURVE",
"18 358 CURVE SMOOTH",
"18 147 LINE SMOOTH",
"18 40 OFFCURVE",
"75 1 OFFCURVE",
"155 1 CURVE SMOOTH"
);
},
{
closed = 1;
nodes = (
"395 -226 OFFCURVE",
"452 -115 OFFCURVE",
"452 34 CURVE SMOOTH",
"452 500 LINE",
"264 500 LINE",
"264 34 LINE SMOOTH",
"264 -14 OFFCURVE",
"247 -44 OFFCURVE",
"103 -40 CURVE",
"103 -207 LINE"
);
}
);
width = 470;
}
);
unicode = 0067;
},
{
color = 1;
glyphname = h;
lastChange = "2016-10-23 02:47:51 +0000";
layers = (
{
layerId = "262880E7-CFE1-4BDA-902E-E24798F3240A";
paths = (
{
closed = 1;
nodes = (
"404 0 LINE",
"404 344 LINE SMOOTH",
"404 443 OFFCURVE",
"345 504 OFFCURVE",
"250 504 CURVE SMOOTH",
"148 504 OFFCURVE",
"75 443 OFFCURVE",
"75 343 CURVE",
"94 343 LINE",
"94 430 OFFCURVE",
"159 483 OFFCURVE",
"248 483 CURVE SMOOTH",
"331 483 OFFCURVE",
"382 429 OFFCURVE",
"382 341 CURVE SMOOTH",
"382 0 LINE"
);
},
{
closed = 1;
nodes = (
"94 0 LINE",
"94 700 LINE",
"72 700 LINE",
"72 0 LINE"
);
}
);
width = 476;
},
{
layerId = "4E2227F3-52E4-4048-A8EE-327B486EF0A4";
paths = (
{
closed = 1;
nodes = (
"452 1 LINE",
"452 358 LINE SMOOTH",
"452 465 OFFCURVE",
"395 504 OFFCURVE",
"315 504 CURVE SMOOTH",
"202 504 OFFCURVE",
"135 427 OFFCURVE",
"135 322 CURVE",
"206 322 LINE",
"206 342 OFFCURVE",
"218 354 OFFCURVE",
"235 354 CURVE SMOOTH",
"252 354 OFFCURVE",
"264 342 OFFCURVE",
"264 322 CURVE SMOOTH",
"264 1 LINE"
);
},
{
closed = 1;
nodes = (
"206 1 LINE",
"206 700 LINE",
"18 700 LINE",
"18 1 LINE"
);
}
);
width = 470;
}
);
unicode = 0068;
},
{
color = 1;
glyphname = i;
lastChange = "2016-10-23 03:08:29 +0000";
layers = (
{
layerId = "262880E7-CFE1-4BDA-902E-E24798F3240A";
paths = (
{
closed = 1;
nodes = (
"94 0 LINE",
"94 500 LINE",
"72 500 LINE",
"72 0 LINE"
);
},
{
closed = 1;
nodes = (
"100 659 OFFCURVE",
"114 673 OFFCURVE",
"114 690 CURVE SMOOTH",
"114 706 OFFCURVE",
"100 720 OFFCURVE",
"83 720 CURVE SMOOTH",
"66 720 OFFCURVE",
"52 706 OFFCURVE",
"52 690 CURVE SMOOTH",
"52 673 OFFCURVE",
"66 659 OFFCURVE",
"83 659 CURVE SMOOTH"
);
}
);
width = 166;
},
{
layerId = "4E2227F3-52E4-4048-A8EE-327B486EF0A4";
paths = (
{
closed = 1;
nodes = (
"206 0 LINE",
"206 500 LINE",
"18 500 LINE",
"18 0 LINE"
);
},
{
closed = 1;
nodes = (
"175 534 OFFCURVE",
"217 576 OFFCURVE",
"217 639 CURVE SMOOTH",
"217 702 OFFCURVE",
"175 744 OFFCURVE",
"112 744 CURVE SMOOTH",
"49 744 OFFCURVE",
"7 702 OFFCURVE",
"7 639 CURVE SMOOTH",
"7 576 OFFCURVE",
"49 534 OFFCURVE",
"112 534 CURVE SMOOTH"
);
}
);
width = 224;
}
);
unicode = 0069;
},
{
color = 1;
glyphname = j;
lastChange = "2016-10-23 03:08:22 +0000";
layers = (
{
layerId = "262880E7-CFE1-4BDA-902E-E24798F3240A";
paths = (
{
closed = 1;
nodes = (
"102 659 OFFCURVE",
"114 671 OFFCURVE",
"114 690 CURVE SMOOTH",
"114 709 OFFCURVE",
"102 720 OFFCURVE",
"83 720 CURVE SMOOTH",
"64 720 OFFCURVE",
"52 709 OFFCURVE",
"52 690 CURVE SMOOTH",
"52 671 OFFCURVE",
"64 659 OFFCURVE",
"83 659 CURVE SMOOTH"
);
},
{
closed = 1;
nodes = (
"42 -211 OFFCURVE",
"94 -159 OFFCURVE",
"94 -74 CURVE SMOOTH",
"94 500 LINE",
"72 500 LINE",
"72 -74 LINE SMOOTH",
"72 -146 OFFCURVE",
"29 -190 OFFCURVE",
"-42 -190 CURVE",
"-42 -211 LINE"
);
}
);
width = 166;
},
{
layerId = "4E2227F3-52E4-4048-A8EE-327B486EF0A4";
paths = (
{
closed = 1;
nodes = (
"179 534 OFFCURVE",
"222 581 OFFCURVE",
"222 639 CURVE SMOOTH",
"222 697 OFFCURVE",
"170 743 OFFCURVE",
"117 743 CURVE SMOOTH",
"64 743 OFFCURVE",
"12 697 OFFCURVE",
"12 639 CURVE SMOOTH",
"12 581 OFFCURVE",
"55 534 OFFCURVE",
"117 534 CURVE SMOOTH"
);
},
{
closed = 1;
nodes = (
"204 -210 OFFCURVE",
"211 -120 OFFCURVE",
"211 29 CURVE SMOOTH",
"211 495 LINE",
"23 495 LINE",
"23 29 LINE SMOOTH",
"23 -19 OFFCURVE",
"6 -49 OFFCURVE",
"-78 -41 CURVE",
"-78 -201 LINE"
);
}
);
width = 229;
}
);
unicode = 006A;
},
{
color = 1;
glyphname = k;
lastChange = "2016-10-23 02:47:51 +0000";
layers = (
{
guideLines = (
{
angle = 180;
position = "{259, 0}";
showMeasurement = 1;
},
{
angle = 180;
position = "{205, 332}";
showMeasurement = 1;
}
);
layerId = "262880E7-CFE1-4BDA-902E-E24798F3240A";
paths = (
{
closed = 1;
nodes = (
"325 500 LINE",
"94 269 LINE",
"94 700 LINE",
"72 700 LINE",
"72 0 LINE",
"94 0 LINE",
"94 231 LINE",
"325 0 LINE",
"351 0 LINE",
"101 250 LINE",
"351 500 LINE"
);
}
);
width = 383;
},
{
layerId = "4E2227F3-52E4-4048-A8EE-327B486EF0A4";
paths = (
{
closed = 1;
nodes = (
"266 500 LINE",
"206 355 LINE",
"206 700 LINE",
"18 700 LINE",
"18 0 LINE",
"206 0 LINE",
"206 145 LINE",
"267 0 LINE",
"467 0 LINE",
"325 260 LINE",
"464 500 LINE"
);
}
);
width = 467;
},
{
associatedMasterId = "4E2227F3-52E4-4048-A8EE-327B486EF0A4";
layerId = "3F40B02A-8325-4017-AA07-0CC2F5060827";
name = "Medium{85,100}";
paths = (
{
closed = 1;
nodes = (
"299 500 LINE",
"150 297 LINE",
"150 700 LINE",
"66 700 LINE",
"66 0 LINE",
"150 0 LINE",
"150 206 LINE",
"299 0 LINE",
"404 0 LINE",
"211 250 LINE",
"404 500 LINE"
);
}
);
width = 396;
}
);
unicode = 006B;
},
{
color = 1;
glyphname = l;
lastChange = "2016-10-23 02:52:06 +0000";
layers = (
{
layerId = "262880E7-CFE1-4BDA-902E-E24798F3240A";
paths = (
{
closed = 1;
nodes = (
"94 0 LINE",
"94 700 LINE",
"72 700 LINE",
"72 0 LINE"
);
}
);
width = 182;
},
{
layerId = "4E2227F3-52E4-4048-A8EE-327B486EF0A4";
paths = (
{
closed = 1;
nodes = (
"206 0 LINE",
"206 700 LINE",
"18 700 LINE",
"18 0 LINE"
);
}
);
width = 224;
}
);
unicode = 006C;
},
{
color = 1;
glyphname = m;
lastChange = "2016-10-23 02:47:51 +0000";
layers = (
{
layerId = "262880E7-CFE1-4BDA-902E-E24798F3240A";
paths = (
{
closed = 1;
nodes = (
"694 0 LINE",
"694 344 LINE SMOOTH",
"694 443 OFFCURVE",
"635 504 OFFCURVE",
"540 504 CURVE SMOOTH",
"438 504 OFFCURVE",
"375 443 OFFCURVE",
"375 343 CURVE",
"394 343 LINE",
"393 428 OFFCURVE",
"448 483 OFFCURVE",
"538 483 CURVE SMOOTH",
"621 483 OFFCURVE",
"672 429 OFFCURVE",
"672 341 CURVE SMOOTH",
"672 0 LINE"
);
},
{
closed = 1;
nodes = (
"94 0 LINE",
"94 500 LINE",
"72 500 LINE",
"72 0 LINE"
);
},
{
closed = 1;
nodes = (
"394 0 LINE",
"394 344 LINE SMOOTH",
"394 443 OFFCURVE",
"335 504 OFFCURVE",
"240 504 CURVE SMOOTH",
"138 504 OFFCURVE",
"75 443 OFFCURVE",
"75 343 CURVE",
"94 343 LINE",
"94 430 OFFCURVE",
"149 483 OFFCURVE",
"238 483 CURVE SMOOTH",
"321 483 OFFCURVE",
"372 429 OFFCURVE",
"372 341 CURVE SMOOTH",
"372 0 LINE"
);
}
);
width = 766;
},
{
layerId = "4E2227F3-52E4-4048-A8EE-327B486EF0A4";
paths = (
{
closed = 1;
nodes = (
"698 1 LINE",
"698 358 LINE SMOOTH",
"698 465 OFFCURVE",
"641 504 OFFCURVE",
"561 504 CURVE SMOOTH",
"448 504 OFFCURVE",
"381 427 OFFCURVE",
"381 322 CURVE",
"452 322 LINE",
"452 342 OFFCURVE",
"464 354 OFFCURVE",
"481 354 CURVE SMOOTH",
"498 354 OFFCURVE",
"510 342 OFFCURVE",
"510 322 CURVE SMOOTH",
"510 1 LINE"
);
},
{
closed = 1;
nodes = (
"206 1 LINE",
"206 501 LINE",
"18 501 LINE",
"18 1 LINE"
);
},
{
closed = 1;
nodes = (
"452 1 LINE",
"452 358 LINE SMOOTH",
"452 465 OFFCURVE",
"395 504 OFFCURVE",
"315 504 CURVE SMOOTH",
"202 504 OFFCURVE",
"135 427 OFFCURVE",
"135 322 CURVE",
"206 322 LINE",
"206 342 OFFCURVE",
"218 354 OFFCURVE",
"235 354 CURVE SMOOTH",
"252 354 OFFCURVE",
"264 342 OFFCURVE",
"264 322 CURVE SMOOTH",
"264 1 LINE"
);
}
);
width = 716;
}
);
unicode = 006D;
},
{
color = 1;
glyphname = n;
lastChange = "2016-10-23 02:47:51 +0000";
layers = (
{
layerId = "262880E7-CFE1-4BDA-902E-E24798F3240A";
paths = (
{
closed = 1;
nodes = (
"404 0 LINE",
"404 344 LINE SMOOTH",
"404 443 OFFCURVE",
"345 504 OFFCURVE",
"250 504 CURVE SMOOTH",
"148 504 OFFCURVE",
"75 443 OFFCURVE",
"75 343 CURVE",
"94 343 LINE",
"94 430 OFFCURVE",
"159 483 OFFCURVE",
"248 483 CURVE SMOOTH",
"331 483 OFFCURVE",
"382 429 OFFCURVE",
"382 341 CURVE SMOOTH",
"382 0 LINE"
);
},
{
closed = 1;
nodes = (
"94 0 LINE",
"94 500 LINE",
"72 500 LINE",
"72 0 LINE"
);
}
);
width = 476;
},
{
layerId = "4E2227F3-52E4-4048-A8EE-327B486EF0A4";
paths = (
{
closed = 1;
nodes = (
"452 1 LINE",
"452 358 LINE SMOOTH",
"452 465 OFFCURVE",
"395 504 OFFCURVE",
"315 504 CURVE SMOOTH",
"202 504 OFFCURVE",
"135 427 OFFCURVE",
"135 322 CURVE",
"206 322 LINE",
"206 342 OFFCURVE",
"218 355 OFFCURVE",
"235 355 CURVE SMOOTH",
"252 355 OFFCURVE",
"264 342 OFFCURVE",
"264 322 CURVE SMOOTH",
"264 1 LINE"
);
},
{
closed = 1;
nodes = (
"206 1 LINE",
"206 501 LINE",
"18 501 LINE",
"18 1 LINE"
);
}
);
width = 470;
}
);
unicode = 006E;
},
{
color = 1;
glyphname = o;
lastChange = "2016-10-23 02:52:50 +0000";
layers = (
{
guideLines = (
{
angle = 180;
position = "{223, 250}";
showMeasurement = 1;
},
{
angle = 120;
position = "{223, 250}";
showMeasurement = 1;
},
{
angle = 60;
position = "{223, 250}";
showMeasurement = 1;
}
);
layerId = "262880E7-CFE1-4BDA-902E-E24798F3240A";
paths = (
{
closed = 1;
nodes = (
"134 16 OFFCURVE",
"74 73 OFFCURVE",
"74 158 CURVE SMOOTH",
"74 342 LINE SMOOTH",
"74 427 OFFCURVE",
"134 484 OFFCURVE",
"223 484 CURVE SMOOTH",
"312 484 OFFCURVE",
"372 427 OFFCURVE",
"372 342 CURVE SMOOTH",
"372 158 LINE SMOOTH",
"372 73 OFFCURVE",
"312 16 OFFCURVE",
"223 16 CURVE SMOOTH"
);
},
{
closed = 1;
nodes = (
"326 -5 OFFCURVE",
"394 61 OFFCURVE",
"394 161 CURVE SMOOTH",
"394 339 LINE SMOOTH",
"394 439 OFFCURVE",
"326 505 OFFCURVE",
"223 505 CURVE SMOOTH",
"120 505 OFFCURVE",
"52 439 OFFCURVE",
"52 339 CURVE SMOOTH",
"52 161 LINE SMOOTH",
"52 61 OFFCURVE",
"120 -5 OFFCURVE",
"223 -5 CURVE SMOOTH"
);
}
);
width = 446;
},
{
layerId = "4E2227F3-52E4-4048-A8EE-327B486EF0A4";
paths = (
{
closed = 1;
nodes = (
"217 146 OFFCURVE",
"205 159 OFFCURVE",
"205 178 CURVE SMOOTH",
"205 322 LINE SMOOTH",
"205 341 OFFCURVE",
"217 354 OFFCURVE",
"234 354 CURVE SMOOTH",
"251 354 OFFCURVE",
"263 341 OFFCURVE",
"263 322 CURVE SMOOTH",
"263 178 LINE SMOOTH",
"263 159 OFFCURVE",
"251 146 OFFCURVE",
"234 146 CURVE SMOOTH"
);
},
{
closed = 1;
nodes = (
"368 -4 OFFCURVE",
"458 72 OFFCURVE",
"458 185 CURVE SMOOTH",
"458 315 LINE SMOOTH",
"458 428 OFFCURVE",
"368 504 OFFCURVE",
"234 504 CURVE SMOOTH",
"100 504 OFFCURVE",
"10 428 OFFCURVE",
"10 315 CURVE SMOOTH",
"10 185 LINE SMOOTH",
"10 72 OFFCURVE",
"100 -4 OFFCURVE",
"234 -4 CURVE SMOOTH"
);
}
);
width = 468;
}
);
unicode = 006F;
},
{
color = 1;
glyphname = p;
lastChange = "2016-10-23 02:47:51 +0000";
layers = (
{
layerId = "262880E7-CFE1-4BDA-902E-E24798F3240A";
paths = (
{
closed = 1;
nodes = (
"343 -5 OFFCURVE",
"406 58 OFFCURVE",
"406 161 CURVE SMOOTH",
"406 339 LINE SMOOTH",
"406 442 OFFCURVE",
"343 505 OFFCURVE",
"240 505 CURVE SMOOTH",
"138 505 OFFCURVE",
"75 442 OFFCURVE",
"75 339 CURVE SMOOTH",
"75 161 LINE SMOOTH",
"75 58 OFFCURVE",
"142 -5 OFFCURVE",
"240 -5 CURVE SMOOTH"
);
},
{
closed = 1;
nodes = (
"94 -200 LINE",
"94 500 LINE",
"72 500 LINE",
"72 -200 LINE"
);
},
{
closed = 1;
nodes = (
"149 16 OFFCURVE",
"94 70 OFFCURVE",
"94 158 CURVE SMOOTH",
"94 342 LINE SMOOTH",
"94 431 OFFCURVE",
"149 484 OFFCURVE",
"239 484 CURVE SMOOTH",
"329 484 OFFCURVE",
"384 430 OFFCURVE",
"384 342 CURVE SMOOTH",
"384 158 LINE SMOOTH",
"384 70 OFFCURVE",
"329 16 OFFCURVE",
"239 16 CURVE SMOOTH"
);
}
);
width = 470;
},
{
layerId = "4E2227F3-52E4-4048-A8EE-327B486EF0A4";
paths = (
{
closed = 1;
nodes = (
"375 -4 OFFCURVE",
"452 35 OFFCURVE",
"452 142 CURVE SMOOTH",
"452 358 LINE SMOOTH",
"452 465 OFFCURVE",
"385 504 OFFCURVE",
"305 504 CURVE SMOOTH",
"192 504 OFFCURVE",
"125 427 OFFCURVE",
"125 322 CURVE SMOOTH",
"125 178 LINE SMOOTH",
"125 73 OFFCURVE",
"182 -4 OFFCURVE",
"295 -4 CURVE SMOOTH"
);
},
{
closed = 1;
nodes = (
"206 -201 LINE",
"206 499 LINE",
"18 499 LINE",
"18 -201 LINE"
);
},
{
closed = 1;
nodes = (
"218 146 OFFCURVE",
"206 158 OFFCURVE",
"206 178 CURVE",
"206 322 LINE",
"206 342 OFFCURVE",
"218 354 OFFCURVE",
"235 354 CURVE SMOOTH",
"252 354 OFFCURVE",
"264 342 OFFCURVE",
"264 322 CURVE SMOOTH",
"264 178 LINE SMOOTH",
"264 158 OFFCURVE",
"252 146 OFFCURVE",
"235 146 CURVE SMOOTH"
);
}
);
width = 470;
}
);
unicode = 0070;
},
{
color = 1;
glyphname = q;
lastChange = "2016-10-23 02:47:51 +0000";
layers = (
{
layerId = "262880E7-CFE1-4BDA-902E-E24798F3240A";
paths = (
{
closed = 1;
nodes = (
"330 -5 OFFCURVE",
"395 58 OFFCURVE",
"395 161 CURVE SMOOTH",
"395 339 LINE SMOOTH",
"395 442 OFFCURVE",
"332 505 OFFCURVE",
"230 505 CURVE SMOOTH",
"127 505 OFFCURVE",
"64 442 OFFCURVE",
"64 339 CURVE SMOOTH",
"64 161 LINE SMOOTH",
"64 58 OFFCURVE",
"127 -5 OFFCURVE",
"230 -5 CURVE SMOOTH"
);
},
{
closed = 1;
nodes = (
"141 16 OFFCURVE",
"86 70 OFFCURVE",
"86 158 CURVE SMOOTH",
"86 342 LINE SMOOTH",
"86 430 OFFCURVE",
"141 484 OFFCURVE",
"231 484 CURVE SMOOTH",
"321 484 OFFCURVE",
"376 431 OFFCURVE",
"376 342 CURVE SMOOTH",
"376 158 LINE SMOOTH",
"376 70 OFFCURVE",
"321 16 OFFCURVE",
"231 16 CURVE SMOOTH"
);
},
{
closed = 1;
nodes = (
"398 -200 LINE",
"398 500 LINE",
"376 500 LINE",
"376 -200 LINE"
);
}
);
width = 470;
},
{
layerId = "4E2227F3-52E4-4048-A8EE-327B486EF0A4";
paths = (
{
closed = 1;
nodes = (
"288 -4 OFFCURVE",
"345 73 OFFCURVE",
"345 178 CURVE SMOOTH",
"345 322 LINE SMOOTH",
"345 427 OFFCURVE",
"278 504 OFFCURVE",
"165 504 CURVE SMOOTH",
"85 504 OFFCURVE",
"18 465 OFFCURVE",
"18 358 CURVE SMOOTH",
"18 142 LINE SMOOTH",
"18 35 OFFCURVE",
"95 -4 OFFCURVE",
"175 -4 CURVE SMOOTH"
);
},
{
closed = 1;
nodes = (
"218 146 OFFCURVE",
"206 158 OFFCURVE",
"206 178 CURVE SMOOTH",
"206 322 LINE SMOOTH",
"206 342 OFFCURVE",
"218 354 OFFCURVE",
"235 354 CURVE SMOOTH",
"252 354 OFFCURVE",
"264 342 OFFCURVE",
"264 322 CURVE",
"264 178 LINE",
"264 158 OFFCURVE",
"252 146 OFFCURVE",
"235 146 CURVE SMOOTH"
);
},
{
closed = 1;
nodes = (
"452 -201 LINE",
"452 499 LINE",
"264 499 LINE",
"264 -201 LINE"
);
}
);
width = 470;
}
);
unicode = 0071;
},
{
color = 1;
glyphname = r;
lastChange = "2016-10-23 02:53:34 +0000";
layers = (
{
layerId = "262880E7-CFE1-4BDA-902E-E24798F3240A";
paths = (
{
closed = 1;
nodes = (
"94 0 LINE",
"94 500 LINE",
"72 500 LINE",
"72 0 LINE"
);
},
{
closed = 1;
nodes = (
"94 341 LINE",
"94 429 OFFCURVE",
"151 483 OFFCURVE",
"233 483 CURVE SMOOTH",
"263 483 OFFCURVE",
"278 476 OFFCURVE",
"296 465 CURVE",
"309 483 LINE",
"288 495 OFFCURVE",
"270 504 OFFCURVE",
"234 504 CURVE SMOOTH",
"140 504 OFFCURVE",
"79 441 OFFCURVE",
"79 341 CURVE"
);
}
);
width = 322;
},
{
layerId = "4E2227F3-52E4-4048-A8EE-327B486EF0A4";
paths = (
{
closed = 1;
nodes = (
"206 1 LINE",
"206 501 LINE",
"18 501 LINE",
"18 1 LINE"
);
},
{
closed = 1;
nodes = (
"206 272 LINE",
"206 293 OFFCURVE",
"223 317 OFFCURVE",
"246 326 CURVE SMOOTH",
"272 336 OFFCURVE",
"309 332 OFFCURVE",
"319 324 CURVE",
"345 485 LINE",
"326 505 OFFCURVE",
"310 506 OFFCURVE",
"300 506 CURVE SMOOTH",
"183 506 OFFCURVE",
"155 371 OFFCURVE",
"155 272 CURVE"
);
}
);
width = 333;
}
);
unicode = 0072;
},
{
color = 1;
glyphname = s;
lastChange = "2016-10-23 02:43:38 +0000";
layers = (
{
layerId = "262880E7-CFE1-4BDA-902E-E24798F3240A";
paths = (
{
closed = 1;
nodes = (
"338 -4 OFFCURVE",
"398 43 OFFCURVE",
"398 123 CURVE SMOOTH",
"398 211 OFFCURVE",
"325 231 OFFCURVE",
"234 263 CURVE SMOOTH",
"141 295 OFFCURVE",
"96 317 OFFCURVE",
"96 378 CURVE SMOOTH",
"96 443 OFFCURVE",
"147 483 OFFCURVE",
"233 483 CURVE SMOOTH",
"322 483 OFFCURVE",
"374 441 OFFCURVE",
"374 369 CURVE SMOOTH",
"374 344 LINE",
"396 344 LINE",
"396 369 LINE SMOOTH",
"396 454 OFFCURVE",
"336 504 OFFCURVE",
"234 504 CURVE SMOOTH",
"133 504 OFFCURVE",
"74 456 OFFCURVE",
"74 378 CURVE SMOOTH",
"74 295 OFFCURVE",
"141 273 OFFCURVE",
"230 242 CURVE SMOOTH",
"325 209 OFFCURVE",
"376 189 OFFCURVE",
"376 123 CURVE SMOOTH",
"376 57 OFFCURVE",
"324 17 OFFCURVE",
"236 17 CURVE SMOOTH",
"147 17 OFFCURVE",
"94 57 OFFCURVE",
"94 126 CURVE SMOOTH",
"94 157 LINE",
"72 157 LINE",
"72 126 LINE SMOOTH",
"72 44 OFFCURVE",
"133 -4 OFFCURVE",
"236 -4 CURVE SMOOTH"
);
}
);
width = 479;
},
{
layerId = "4E2227F3-52E4-4048-A8EE-327B486EF0A4";
paths = (
{
closed = 1;
nodes = (
"358 -8 OFFCURVE",
"439 34 OFFCURVE",
"439 145 CURVE SMOOTH",
"439 236 OFFCURVE",
"385 266 OFFCURVE",
"270 299 CURVE SMOOTH",
"225 312 OFFCURVE",
"192 319 OFFCURVE",
"192 336 CURVE SMOOTH",
"192 346 OFFCURVE",
"202 352 OFFCURVE",
"216 352 CURVE SMOOTH",
"231 352 OFFCURVE",
"242 344 OFFCURVE",
"242 329 CURVE SMOOTH",
"242 328 LINE",
"430 328 LINE",
"430 346 LINE SMOOTH",
"430 451 OFFCURVE",
"358 505 OFFCURVE",
"221 505 CURVE SMOOTH",
"77 505 OFFCURVE",
"6 445 OFFCURVE",
"6 344 CURVE SMOOTH",
"6 243 OFFCURVE",
"77 211 OFFCURVE",
"173 182 CURVE SMOOTH",
"220 168 OFFCURVE",
"241 163 OFFCURVE",
"241 149 CURVE SMOOTH",
"241 140 OFFCURVE",
"232 133 OFFCURVE",
"221 133 CURVE SMOOTH",
"208 133 OFFCURVE",
"195 143 OFFCURVE",
"195 159 CURVE SMOOTH",
"195 160 LINE",
"4 163 LINE",
"4 147 LINE",
"17 38 OFFCURVE",
"82 -8 OFFCURVE",
"223 -8 CURVE SMOOTH"
);
}
);
width = 443;
},
{
associatedMasterId = "4E2227F3-52E4-4048-A8EE-327B486EF0A4";
layerId = "441F9B22-0419-40BC-A36F-3C9E4C117ED8";
name = "Medium{85,100}";
paths = (
{
closed = 1;
nodes = (
"328 -4 OFFCURVE",
"396 46 OFFCURVE",
"396 132 CURVE SMOOTH",
"396 224 OFFCURVE",
"326 253 OFFCURVE",
"233 283 CURVE SMOOTH",
"152 309 OFFCURVE",
"114 318 OFFCURVE",
"114 363 CURVE SMOOTH",
"114 406 OFFCURVE",
"149 432 OFFCURVE",
"209 432 CURVE SMOOTH",
"272 432 OFFCURVE",
"309 402 OFFCURVE",
"309 350 CURVE SMOOTH",
"309 336 LINE",
"391 336 LINE",
"391 361 LINE SMOOTH",
"391 451 OFFCURVE",
"325 504 OFFCURVE",
"212 504 CURVE SMOOTH",
"99 504 OFFCURVE",
"32 453 OFFCURVE",
"32 367 CURVE SMOOTH",
"32 278 OFFCURVE",
"98 244 OFFCURVE",
"192 214 CURVE SMOOTH",
"267 190 OFFCURVE",
"310 187 OFFCURVE",
"310 138 CURVE SMOOTH",
"310 96 OFFCURVE",
"275 71 OFFCURVE",
"215 71 CURVE SMOOTH",
"149 71 OFFCURVE",
"110 100 OFFCURVE",
"110 150 CURVE SMOOTH",
"110 162 LINE",
"30 162 LINE",
"30 134 LINE SMOOTH",
"30 47 OFFCURVE",
"97 -4 OFFCURVE",
"211 -4 CURVE SMOOTH"
);
}
);
width = 426;
}
);
unicode = 0073;
},
{
color = 1;
glyphname = t;
lastChange = "2016-10-23 02:47:51 +0000";
layers = (
{
layerId = "262880E7-CFE1-4BDA-902E-E24798F3240A";
paths = (
{
closed = 1;
nodes = (
"264 0 LINE",
"264 21 LINE",
"222 21 LINE SMOOTH",
"141 21 OFFCURVE",
"118 57 OFFCURVE",
"118 153 CURVE SMOOTH",
"118 610 LINE",
"96 610 LINE",
"96 153 LINE SMOOTH",
"96 43 OFFCURVE",
"128 0 OFFCURVE",
"222 0 CURVE SMOOTH"
);
},
{
closed = 1;
nodes = (
"250 479 LINE",
"250 500 LINE",
"22 500 LINE",
"22 479 LINE"
);
}
);
width = 304;
},
{
layerId = "4E2227F3-52E4-4048-A8EE-327B486EF0A4";
paths = (
{
closed = 1;
nodes = (
"309 0 LINE",
"309 169 LINE",
"298 169 LINE",
"243 169 OFFCURVE",
"238 180 OFFCURVE",
"238 229 CURVE SMOOTH",
"242 646 LINE",
"54 646 LINE",
"50 156 LINE SMOOTH",
"49 5 OFFCURVE",
"107 -14 OFFCURVE",
"288 0 CURVE"
);
},
{
closed = 1;
nodes = (
"318 340 LINE",
"318 500 LINE",
"0 500 LINE",
"0 340 LINE"
);
}
);
width = 330;
}
);
unicode = 0074;
},
{
color = 1;
glyphname = u;
lastChange = "2016-10-23 02:47:51 +0000";
layers = (
{
layerId = "262880E7-CFE1-4BDA-902E-E24798F3240A";
paths = (
{
closed = 1;
nodes = (
"328 -4 OFFCURVE",
"391 57 OFFCURVE",
"391 157 CURVE",
"372 157 LINE",
"372 70 OFFCURVE",
"317 17 OFFCURVE",
"228 17 CURVE SMOOTH",
"145 17 OFFCURVE",
"94 71 OFFCURVE",
"94 159 CURVE SMOOTH",
"94 500 LINE",
"72 500 LINE",
"72 156 LINE SMOOTH",
"72 57 OFFCURVE",
"131 -4 OFFCURVE",
"226 -4 CURVE SMOOTH"
);
},
{
closed = 1;
nodes = (
"394 4 LINE",
"394 500 LINE",
"372 500 LINE",
"372 4 LINE"
);
}
);
width = 466;
},
{
layerId = "4E2227F3-52E4-4048-A8EE-327B486EF0A4";
paths = (
{
closed = 1;
nodes = (
"268 -4 OFFCURVE",
"335 73 OFFCURVE",
"335 178 CURVE",
"264 178 LINE",
"264 158 OFFCURVE",
"252 146 OFFCURVE",
"235 146 CURVE SMOOTH",
"218 146 OFFCURVE",
"206 158 OFFCURVE",
"206 178 CURVE SMOOTH",
"206 499 LINE",
"18 499 LINE",
"18 142 LINE SMOOTH",
"18 35 OFFCURVE",
"75 -4 OFFCURVE",
"155 -4 CURVE SMOOTH"
);
},
{
closed = 1;
nodes = (
"452 -1 LINE",
"452 499 LINE",
"264 499 LINE",
"264 -1 LINE"
);
}
);
width = 470;
}
);
unicode = 0075;
},
{
color = 1;
glyphname = v;
lastChange = "2016-10-23 02:50:17 +0000";
layers = (
{
layerId = "262880E7-CFE1-4BDA-902E-E24798F3240A";
paths = (
{
closed = 1;
nodes = (
"226 0 LINE",
"398 500 LINE",
"373 500 LINE",
"215 33 LINE",
"57 500 LINE",
"32 500 LINE",
"204 0 LINE"
);
}
);
width = 430;
},
{
layerId = "4E2227F3-52E4-4048-A8EE-327B486EF0A4";
paths = (
{
closed = 1;
nodes = (
"329 -2 LINE",
"463 498 LINE",
"277 500 LINE",
"233 232 LINE",
"189 500 LINE",
"0 500 LINE",
"134 0 LINE"
);
}
);
width = 463;
}
);
unicode = 0076;
},
{
color = 1;
glyphname = w;
lastChange = "2016-10-23 02:50:36 +0000";
layers = (
{
layerId = "262880E7-CFE1-4BDA-902E-E24798F3240A";
paths = (
{
closed = 1;
nodes = (
"205 0 LINE",
"334 461 LINE",
"464 0 LINE",
"486 0 LINE",
"628 500 LINE",
"606 500 LINE",
"476 27 LINE",
"346 500 LINE",
"325 500 LINE",
"195 27 LINE",
"65 500 LINE",
"40 500 LINE",
"183 0 LINE"
);
}
);
width = 668;
},
{
layerId = "4E2227F3-52E4-4048-A8EE-327B486EF0A4";
paths = (
{
closed = 1;
nodes = (
"289 -2 LINE",
"330 211 LINE",
"371 0 LINE",
"526 -2 LINE",
"660 498 LINE",
"474 500 LINE",
"430 232 LINE",
"386 500 LINE",
"277 500 LINE",
"233 232 LINE",
"189 500 LINE",
"0 500 LINE",
"134 0 LINE"
);
}
);
width = 660;
}
);
unicode = 0077;
},
{
color = 1;
glyphname = x;
lastChange = "2016-10-23 02:47:51 +0000";
layers = (
{
layerId = "262880E7-CFE1-4BDA-902E-E24798F3240A";
paths = (
{
closed = 1;
nodes = (
"65 0 LINE",
"224 233 LINE",
"383 0 LINE",
"408 0 LINE",
"235 250 LINE",
"408 500 LINE",
"383 500 LINE",
"224 267 LINE",
"65 500 LINE",
"40 500 LINE",
"213 250 LINE",
"40 0 LINE"
);
}
);
width = 448;
},
{
layerId = "4E2227F3-52E4-4048-A8EE-327B486EF0A4";
paths = (
{
closed = 1;
nodes = (
"198 0 LINE",
"233 98 LINE",
"268 0 LINE",
"466 0 LINE",
"320 250 LINE",
"466 500 LINE",
"268 500 LINE",
"233 408 LINE",
"198 500 LINE",
"0 500 LINE",
"146 250 LINE",
"0 0 LINE"
);
}
);
width = 466;
}
);
unicode = 0078;
},
{
color = 1;
glyphname = y;
lastChange = "2016-10-23 02:50:25 +0000";
layers = (
{
layerId = "262880E7-CFE1-4BDA-902E-E24798F3240A";
paths = (
{
closed = 1;
nodes = (
"152 -200 OFFCURVE",
"177 -172 OFFCURVE",
"214 -62 CURVE SMOOTH",
"404 500 LINE",
"382 500 LINE",
"225 27 LINE",
"62 500 LINE",
"40 500 LINE",
"215 0 LINE",
"197 -56 LINE SMOOTH",
"165 -157 OFFCURVE",
"140 -179 OFFCURVE",
"77 -179 CURVE",
"77 -200 LINE"
);
}
);
width = 444;
},
{
layerId = "4E2227F3-52E4-4048-A8EE-327B486EF0A4";
paths = (
{
closed = 1;
nodes = (
"253 -198 OFFCURVE",
"285 -143 OFFCURVE",
"327 -2 CURVE",
"463 498 LINE",
"277 500 LINE",
"233 232 LINE",
"189 500 LINE",
"0 500 LINE",
"134 0 LINE",
"134 -2 LINE SMOOTH",
"134 -23 OFFCURVE",
"135 -54 OFFCURVE",
"52 -52 CURVE",
"52 -198 LINE"
);
}
);
width = 463;
}
);
unicode = 0079;
},
{
color = 1;
glyphname = z;
lastChange = "2016-10-23 02:47:51 +0000";
layers = (
{
layerId = "262880E7-CFE1-4BDA-902E-E24798F3240A";
paths = (
{
closed = 1;
nodes = (
"374 0 LINE",
"374 21 LINE",
"64 21 LINE",
"384 479 LINE",
"384 500 LINE",
"44 500 LINE",
"44 479 LINE",
"360 479 LINE",
"40 21 LINE",
"40 0 LINE"
);
}
);
width = 424;
},
{
layerId = "4E2227F3-52E4-4048-A8EE-327B486EF0A4";
paths = (
{
closed = 1;
nodes = (
"375 0 LINE",
"375 150 LINE",
"194 150 LINE",
"382 351 LINE",
"382 500 LINE",
"27 500 LINE",
"27 351 LINE",
"198 351 LINE",
"12 150 LINE",
"12 0 LINE"
);
}
);
width = 394;
}
);
unicode = 007A;
},
{
color = 1;
glyphname = zero;
lastChange = "2016-10-20 05:19:26 +0000";
layers = (
{
layerId = "262880E7-CFE1-4BDA-902E-E24798F3240A";
paths = (
{
closed = 1;
nodes = (
"374 -9 OFFCURVE",
"429 45 OFFCURVE",
"429 150 CURVE SMOOTH",
"429 550 LINE SMOOTH",
"429 655 OFFCURVE",
"374 709 OFFCURVE",
"269 709 CURVE SMOOTH",
"164 709 OFFCURVE",
"109 655 OFFCURVE",
"109 550 CURVE SMOOTH",
"109 150 LINE SMOOTH",
"109 45 OFFCURVE",
"164 -9 OFFCURVE",
"269 -9 CURVE SMOOTH"
);
},
{
closed = 1;
nodes = (
"178 11 OFFCURVE",
"131 58 OFFCURVE",
"131 150 CURVE SMOOTH",
"131 550 LINE SMOOTH",
"131 642 OFFCURVE",
"178 690 OFFCURVE",
"269 690 CURVE SMOOTH",
"360 690 OFFCURVE",
"407 642 OFFCURVE",
"407 550 CURVE SMOOTH",
"407 150 LINE SMOOTH",
"407 58 OFFCURVE",
"360 11 OFFCURVE",
"269 11 CURVE SMOOTH"
);
}
);
width = 538;
},
{
layerId = "4E2227F3-52E4-4048-A8EE-327B486EF0A4";
width = 538;
}
);
unicode = 0030;
},
{
color = 1;
glyphname = one;
lastChange = "2016-10-20 05:19:28 +0000";
layers = (
{
layerId = "262880E7-CFE1-4BDA-902E-E24798F3240A";
paths = (
{
closed = 1;
nodes = (
"142 0 LINE",
"142 700 LINE",
"120 700 LINE",
"120 0 LINE"
);
},
{
closed = 1;
nodes = (
"79 647 LINE",
"120 679 LINE",
"120 700 LINE",
"79 668 LINE"
);
}
);
width = 260;
},
{
layerId = "4E2227F3-52E4-4048-A8EE-327B486EF0A4";
width = 260;
}
);
unicode = 0031;
},
{
color = 1;
glyphname = two;
lastChange = "2016-10-20 05:19:29 +0000";
layers = (
{
layerId = "262880E7-CFE1-4BDA-902E-E24798F3240A";
paths = (
{
closed = 1;
nodes = (
"375 0 LINE",
"375 21 LINE",
"72 21 LINE",
"312 364 LINE SMOOTH",
"350 419 OFFCURVE",
"374 470 OFFCURVE",
"374 530 CURVE SMOOTH",
"374 615 OFFCURVE",
"325 705 OFFCURVE",
"211 705 CURVE SMOOTH",
"106 705 OFFCURVE",
"43 635 OFFCURVE",
"43 500 CURVE",
"43 479 LINE",
"65 479 LINE",
"65 498 LINE SMOOTH",
"65 616 OFFCURVE",
"119 684 OFFCURVE",
"210 684 CURVE SMOOTH",
"298 684 OFFCURVE",
"352 620 OFFCURVE",
"352 528 CURVE SMOOTH",
"352 476 OFFCURVE",
"335 434 OFFCURVE",
"307 395 CURVE SMOOTH",
"43 21 LINE",
"43 0 LINE"
);
}
);
width = 423;
},
{
layerId = "4E2227F3-52E4-4048-A8EE-327B486EF0A4";
width = 423;
}
);
unicode = 0032;
},
{
color = 1;
glyphname = eight;
lastChange = "2016-10-20 05:19:41 +0000";
layers = (
{
layerId = "262880E7-CFE1-4BDA-902E-E24798F3240A";
paths = (
{
closed = 1;
nodes = (
"365 364 OFFCURVE",
"420 418 OFFCURVE",
"420 523 CURVE SMOOTH",
"420 548 LINE SMOOTH",
"420 653 OFFCURVE",
"365 707 OFFCURVE",
"260 707 CURVE SMOOTH",
"155 707 OFFCURVE",
"100 653 OFFCURVE",
"100 548 CURVE SMOOTH",
"100 523 LINE SMOOTH",
"100 418 OFFCURVE",
"155 364 OFFCURVE",
"260 364 CURVE SMOOTH"
);
},
{
closed = 1;
nodes = (
"169 384 OFFCURVE",
"122 431 OFFCURVE",
"122 523 CURVE SMOOTH",
"122 548 LINE SMOOTH",
"122 640 OFFCURVE",
"169 688 OFFCURVE",
"260 688 CURVE SMOOTH",
"351 688 OFFCURVE",
"398 640 OFFCURVE",
"398 548 CURVE SMOOTH",
"398 523 LINE SMOOTH",
"398 431 OFFCURVE",
"351 384 OFFCURVE",
"260 384 CURVE SMOOTH"
);
},
{
closed = 1;
nodes = (
"365 -18 OFFCURVE",
"420 36 OFFCURVE",
"420 141 CURVE SMOOTH",
"420 225 LINE SMOOTH",
"420 330 OFFCURVE",
"365 384 OFFCURVE",
"260 384 CURVE SMOOTH",
"155 384 OFFCURVE",
"100 330 OFFCURVE",
"100 225 CURVE SMOOTH",
"100 141 LINE SMOOTH",
"100 36 OFFCURVE",
"155 -18 OFFCURVE",
"260 -18 CURVE SMOOTH"
);
},
{
closed = 1;
nodes = (
"169 2 OFFCURVE",
"122 49 OFFCURVE",
"122 141 CURVE SMOOTH",
"122 225 LINE SMOOTH",
"122 317 OFFCURVE",
"169 365 OFFCURVE",
"260 365 CURVE SMOOTH",
"351 365 OFFCURVE",
"398 317 OFFCURVE",
"398 225 CURVE SMOOTH",
"398 141 LINE SMOOTH",
"398 49 OFFCURVE",
"351 2 OFFCURVE",
"260 2 CURVE SMOOTH"
);
}
);
width = 520;
},
{
layerId = "4E2227F3-52E4-4048-A8EE-327B486EF0A4";
width = 520;
}
);
unicode = 0038;
},
{
color = 1;
glyphname = colon;
lastChange = "2016-10-20 07:13:30 +0000";
layers = (
{
layerId = "262880E7-CFE1-4BDA-902E-E24798F3240A";
paths = (
{
closed = 1;
nodes = (
"181 37 OFFCURVE",
"200 55 OFFCURVE",
"200 78 CURVE SMOOTH",
"200 100 OFFCURVE",
"181 118 OFFCURVE",
"159 118 CURVE SMOOTH",
"137 118 OFFCURVE",
"118 100 OFFCURVE",
"118 78 CURVE SMOOTH",
"118 55 OFFCURVE",
"136 37 OFFCURVE",
"159 37 CURVE SMOOTH"
);
},
{
closed = 1;
nodes = (
"181 350 OFFCURVE",
"200 368 OFFCURVE",
"200 391 CURVE SMOOTH",
"200 413 OFFCURVE",
"181 431 OFFCURVE",
"159 431 CURVE SMOOTH",
"137 431 OFFCURVE",
"118 413 OFFCURVE",
"118 391 CURVE SMOOTH",
"118 368 OFFCURVE",
"136 350 OFFCURVE",
"159 350 CURVE SMOOTH"
);
}
);
width = 318;
},
{
layerId = "4E2227F3-52E4-4048-A8EE-327B486EF0A4";
width = 318;
}
);
unicode = 003A;
},
{
color = 1;
glyphname = comma;
lastChange = "2016-10-20 07:13:34 +0000";
layers = (
{
layerId = "262880E7-CFE1-4BDA-902E-E24798F3240A";
paths = (
{
closed = 1;
nodes = (
"187 153 LINE",
"165 153 LINE",
"110 -66 LINE",
"132 -66 LINE"
);
}
);
width = 298;
},
{
layerId = "4E2227F3-52E4-4048-A8EE-327B486EF0A4";
width = 298;
}
);
unicode = 002C;
},
{
color = 1;
glyphname = exclam;
lastChange = "2016-10-20 07:13:36 +0000";
layers = (
{
layerId = "262880E7-CFE1-4BDA-902E-E24798F3240A";
paths = (
{
closed = 1;
nodes = (
"163 220 LINE",
"163 700 LINE",
"141 700 LINE",
"141 220 LINE"
);
},
{
closed = 1;
nodes = (
"171 5 OFFCURVE",
"190 23 OFFCURVE",
"190 46 CURVE SMOOTH",
"190 68 OFFCURVE",
"171 86 OFFCURVE",
"149 86 CURVE SMOOTH",
"127 86 OFFCURVE",
"108 68 OFFCURVE",
"108 46 CURVE SMOOTH",
"108 23 OFFCURVE",
"126 5 OFFCURVE",
"149 5 CURVE SMOOTH"
);
}
);
width = 302;
},
{
layerId = "4E2227F3-52E4-4048-A8EE-327B486EF0A4";
width = 302;
}
);
unicode = 0021;
},
{
color = 1;
glyphname = period;
lastChange = "2016-10-20 06:27:46 +0000";
layers = (
{
layerId = "262880E7-CFE1-4BDA-902E-E24798F3240A";
paths = (
{
closed = 1;
nodes = (
"177 3 OFFCURVE",
"191 17 OFFCURVE",
"191 34 CURVE SMOOTH",
"191 50 OFFCURVE",
"177 64 OFFCURVE",
"160 64 CURVE SMOOTH",
"143 64 OFFCURVE",
"129 50 OFFCURVE",
"129 34 CURVE SMOOTH",
"129 17 OFFCURVE",
"143 3 OFFCURVE",
"160 3 CURVE SMOOTH"
);
}
);
width = 320;
},
{
layerId = "4E2227F3-52E4-4048-A8EE-327B486EF0A4";
paths = (
{
closed = 1;
nodes = (
"223 0 OFFCURVE",
"266 47 OFFCURVE",
"266 105 CURVE SMOOTH",
"266 163 OFFCURVE",
"214 209 OFFCURVE",
"161 209 CURVE SMOOTH",
"108 209 OFFCURVE",
"56 163 OFFCURVE",
"56 105 CURVE SMOOTH",
"56 47 OFFCURVE",
"99 0 OFFCURVE",
"161 0 CURVE SMOOTH"
);
}
);
width = 320;
}
);
unicode = 002E;
},
{
color = 1;
glyphname = question;
lastChange = "2016-10-20 07:13:39 +0000";
layers = (
{
layerId = "262880E7-CFE1-4BDA-902E-E24798F3240A";
paths = (
{
closed = 1;
nodes = (
"227 239 LINE",
"197 243 OFFCURVE",
"182 254 OFFCURVE",
"182 275 CURVE SMOOTH",
"182 346 OFFCURVE",
"363 378 OFFCURVE",
"363 546 CURVE SMOOTH",
"363 645 OFFCURVE",
"300 709 OFFCURVE",
"206 709 CURVE SMOOTH",
"111 709 OFFCURVE",
"47 645 OFFCURVE",
"47 550 CURVE SMOOTH",
"47 500 LINE",
"69 500 LINE",
"69 550 LINE SMOOTH",
"69 633 OFFCURVE",
"124 688 OFFCURVE",
"206 688 CURVE SMOOTH",
"287 688 OFFCURVE",
"341 633 OFFCURVE",
"341 549 CURVE SMOOTH",
"341 395 OFFCURVE",
"158 364 OFFCURVE",
"158 271 CURVE SMOOTH",
"158 235 OFFCURVE",
"186 213 OFFCURVE",
"227 215 CURVE"
);
},
{
closed = 1;
nodes = (
"213 5 OFFCURVE",
"232 23 OFFCURVE",
"232 46 CURVE SMOOTH",
"232 68 OFFCURVE",
"213 86 OFFCURVE",
"191 86 CURVE SMOOTH",
"169 86 OFFCURVE",
"150 68 OFFCURVE",
"150 46 CURVE SMOOTH",
"150 23 OFFCURVE",
"168 5 OFFCURVE",
"191 5 CURVE SMOOTH"
);
}
);
width = 413;
},
{
associatedMasterId = "262880E7-CFE1-4BDA-902E-E24798F3240A";
layerId = "E56F6CC4-F9B5-46E1-BC01-FC7B34A3882B";
name = "DemiBold {119,100}";
paths = (
{
closed = 1;
nodes = (
"344 261 LINE",
"333 262 OFFCURVE",
"324 261 OFFCURVE",
"324 276 CURVE SMOOTH",
"324 341 OFFCURVE",
"489 355 OFFCURVE",
"489 519 CURVE SMOOTH",
"489 634 OFFCURVE",
"409 710 OFFCURVE",
"286 710 CURVE SMOOTH",
"161 710 OFFCURVE",
"74 630 OFFCURVE",
"74 512 CURVE SMOOTH",
"74 486 LINE",
"198 481 LINE",
"198 512 LINE SMOOTH",
"198 562 OFFCURVE",
"231 597 OFFCURVE",
"283 597 CURVE SMOOTH",
"333 597 OFFCURVE",
"364 565 OFFCURVE",
"364 516 CURVE SMOOTH",
"364 401 OFFCURVE",
"194 408 OFFCURVE",
"194 270 CURVE SMOOTH",
"194 214 OFFCURVE",
"222 166 OFFCURVE",
"332 182 CURVE"
);
},
{
closed = 1;
nodes = (
"313 -1 OFFCURVE",
"348 32 OFFCURVE",
"348 74 CURVE SMOOTH",
"348 115 OFFCURVE",
"313 148 OFFCURVE",
"272 148 CURVE SMOOTH",
"232 148 OFFCURVE",
"197 115 OFFCURVE",
"197 74 CURVE SMOOTH",
"197 32 OFFCURVE",
"230 -1 OFFCURVE",
"272 -1 CURVE SMOOTH"
);
}
);
width = 539;
},
{
associatedMasterId = "262880E7-CFE1-4BDA-902E-E24798F3240A";
layerId = "4A9C7B17-E806-4997-91E5-397A76494BAB";
name = "DemiBold {119,100}";
paths = (
{
closed = 1;
nodes = (
"344 261 LINE",
"333 262 OFFCURVE",
"324 261 OFFCURVE",
"324 276 CURVE SMOOTH",
"324 341 OFFCURVE",
"489 355 OFFCURVE",
"489 519 CURVE SMOOTH",
"489 634 OFFCURVE",
"409 710 OFFCURVE",
"286 710 CURVE SMOOTH",
"161 710 OFFCURVE",
"74 630 OFFCURVE",
"74 512 CURVE SMOOTH",
"74 486 LINE",
"198 481 LINE",
"198 512 LINE SMOOTH",
"198 562 OFFCURVE",
"231 597 OFFCURVE",
"283 597 CURVE SMOOTH",
"333 597 OFFCURVE",
"364 565 OFFCURVE",
"364 516 CURVE SMOOTH",
"364 401 OFFCURVE",
"194 408 OFFCURVE",
"194 270 CURVE SMOOTH",
"194 214 OFFCURVE",
"222 166 OFFCURVE",
"332 182 CURVE"
);
},
{
closed = 1;
nodes = (
"313 -1 OFFCURVE",
"348 32 OFFCURVE",
"348 74 CURVE SMOOTH",
"348 115 OFFCURVE",
"313 148 OFFCURVE",
"272 148 CURVE SMOOTH",
"232 148 OFFCURVE",
"197 115 OFFCURVE",
"197 74 CURVE SMOOTH",
"197 32 OFFCURVE",
"230 -1 OFFCURVE",
"272 -1 CURVE SMOOTH"
);
}
);
width = 539;
},
{
layerId = "4E2227F3-52E4-4048-A8EE-327B486EF0A4";
width = 413;
}
);
unicode = 003F;
},
{
color = 1;
glyphname = quotedbl;
lastChange = "2016-10-20 07:13:44 +0000";
layers = (
{
layerId = "262880E7-CFE1-4BDA-902E-E24798F3240A";
paths = (
{
closed = 1;
nodes = (
"269 500 LINE",
"269 692 LINE",
"247 692 LINE",
"247 500 LINE"
);
},
{
closed = 1;
nodes = (
"159 500 LINE",
"159 692 LINE",
"137 692 LINE",
"137 500 LINE"
);
}
);
width = 406;
},
{
layerId = "4E2227F3-52E4-4048-A8EE-327B486EF0A4";
width = 406;
}
);
unicode = 0022;
},
{
color = 1;
glyphname = quotesingle;
lastChange = "2016-10-20 07:13:45 +0000";
layers = (
{
layerId = "262880E7-CFE1-4BDA-902E-E24798F3240A";
paths = (
{
closed = 1;
nodes = (
"159 697 LINE",
"137 697 LINE",
"137 507 LINE",
"159 507 LINE"
);
}
);
width = 296;
},
{
layerId = "4E2227F3-52E4-4048-A8EE-327B486EF0A4";
width = 296;
}
);
unicode = 0027;
},
{
color = 1;
glyphname = semicolon;
lastChange = "2016-10-20 07:13:48 +0000";
layers = (
{
layerId = "262880E7-CFE1-4BDA-902E-E24798F3240A";
paths = (
{
closed = 1;
nodes = (
"178 370 OFFCURVE",
"197 388 OFFCURVE",
"197 411 CURVE",
"197 433 OFFCURVE",
"178 451 OFFCURVE",
"156 451 CURVE SMOOTH",
"134 451 OFFCURVE",
"115 433 OFFCURVE",
"115 411 CURVE SMOOTH",
"115 388 OFFCURVE",
"133 370 OFFCURVE",
"156 370 CURVE SMOOTH"
);
},
{
closed = 1;
nodes = (
"136 -60 LINE",
"172 147 LINE",
"150 147 LINE",
"114 -60 LINE"
);
}
);
width = 304;
},
{
layerId = "4E2227F3-52E4-4048-A8EE-327B486EF0A4";
width = 304;
}
);
unicode = 003B;
},
{
color = 1;
glyphname = slash;
lastChange = "2016-10-20 07:13:51 +0000";
layers = (
{
layerId = "262880E7-CFE1-4BDA-902E-E24798F3240A";
paths = (
{
closed = 1;
nodes = (
"51 0 LINE",
"189 700 LINE",
"167 700 LINE",
"29 0 LINE"
);
}
);
width = 218;
},
{
layerId = "4E2227F3-52E4-4048-A8EE-327B486EF0A4";
width = 218;
}
);
unicode = 002F;
},
{
color = 1;
glyphname = emdash;
lastChange = "2016-10-20 07:13:53 +0000";
layers = (
{
layerId = "262880E7-CFE1-4BDA-902E-E24798F3240A";
paths = (
{
closed = 1;
nodes = (
"506 251 LINE",
"506 272 LINE",
"98 272 LINE",
"98 251 LINE"
);
}
);
width = 604;
},
{
layerId = "4E2227F3-52E4-4048-A8EE-327B486EF0A4";
width = 604;
}
);
unicode = 2014;
},
{
color = 1;
glyphname = hyphen;
lastChange = "2016-10-20 07:13:54 +0000";
layers = (
{
layerId = "262880E7-CFE1-4BDA-902E-E24798F3240A";
paths = (
{
closed = 1;
nodes = (
"356 251 LINE",
"356 272 LINE",
"98 272 LINE",
"98 251 LINE"
);
}
);
width = 454;
},
{
layerId = "4E2227F3-52E4-4048-A8EE-327B486EF0A4";
width = 454;
}
);
unicode = 002D;
},
{
color = 1;
glyphname = dollar;
lastChange = "2016-10-20 07:13:58 +0000";
layers = (
{
layerId = "262880E7-CFE1-4BDA-902E-E24798F3240A";
paths = (
{
closed = 1;
nodes = (
"349 -5 OFFCURVE",
"412 50 OFFCURVE",
"412 149 CURVE SMOOTH",
"412 255 OFFCURVE",
"339 307 OFFCURVE",
"257 361 CURVE SMOOTH",
"176 414 OFFCURVE",
"112 457 OFFCURVE",
"112 550 CURVE SMOOTH",
"112 634 OFFCURVE",
"164 684 OFFCURVE",
"248 684 CURVE SMOOTH",
"332 684 OFFCURVE",
"384 635 OFFCURVE",
"384 548 CURVE SMOOTH",
"384 500 LINE",
"406 500 LINE",
"406 550 LINE SMOOTH",
"406 650 OFFCURVE",
"346 705 OFFCURVE",
"248 705 CURVE SMOOTH",
"150 705 OFFCURVE",
"90 649 OFFCURVE",
"90 553 CURVE SMOOTH",
"90 446 OFFCURVE",
"165 394 OFFCURVE",
"243 342 CURVE SMOOTH",
"320 291 OFFCURVE",
"390 248 OFFCURVE",
"390 152 CURVE SMOOTH",
"390 67 OFFCURVE",
"335 15 OFFCURVE",
"250 15 CURVE SMOOTH",
"165 15 OFFCURVE",
"118 68 OFFCURVE",
"118 154 CURVE SMOOTH",
"118 200 LINE",
"96 200 LINE",
"96 150 LINE SMOOTH",
"96 50 OFFCURVE",
"152 -5 OFFCURVE",
"251 -5 CURVE SMOOTH"
);
},
{
closed = 1;
nodes = (
"265 -88 LINE",
"265 2 LINE",
"243 2 LINE",
"243 -88 LINE"
);
},
{
closed = 1;
nodes = (
"258 702 LINE",
"258 792 LINE",
"236 792 LINE",
"236 702 LINE"
);
}
);
width = 502;
},
{
associatedMasterId = "262880E7-CFE1-4BDA-902E-E24798F3240A";
layerId = "E869EA52-1DFA-43F8-82AD-AF9382669512";
name = "DemiBold{119,100}";
paths = (
{
closed = 1;
nodes = (
"387 -10 OFFCURVE",
"467 63 OFFCURVE",
"467 176 CURVE SMOOTH",
"467 286 OFFCURVE",
"394 347 OFFCURVE",
"295 395 CURVE SMOOTH",
"233 430 OFFCURVE",
"175 457 OFFCURVE",
"175 518 CURVE SMOOTH",
"175 565 OFFCURVE",
"204 598 OFFCURVE",
"256 598 CURVE SMOOTH",
"309 598 OFFCURVE",
"341 564 OFFCURVE",
"341 512 CURVE SMOOTH",
"341 481 LINE",
"465 486 LINE",
"465 512 LINE SMOOTH",
"465 632 OFFCURVE",
"380 710 OFFCURVE",
"253 710 CURVE SMOOTH",
"129 710 OFFCURVE",
"49 636 OFFCURVE",
"49 524 CURVE SMOOTH",
"49 415 OFFCURVE",
"123 353 OFFCURVE",
"221 306 CURVE SMOOTH",
"279 274 OFFCURVE",
"341 245 OFFCURVE",
"341 183 CURVE SMOOTH",
"341 137 OFFCURVE",
"311 103 OFFCURVE",
"259 103 CURVE SMOOTH",
"205 103 OFFCURVE",
"176 136 OFFCURVE",
"176 193 CURVE SMOOTH",
"176 219 LINE",
"46 214 LINE",
"46 188 LINE SMOOTH",
"46 68 OFFCURVE",
"128 -10 OFFCURVE",
"261 -10 CURVE SMOOTH"
);
},
{
closed = 1;
nodes = (
"306 -80 LINE",
"306 40 LINE",
"203 40 LINE",
"203 -80 LINE"
);
},
{
closed = 1;
nodes = (
"309 652 LINE",
"309 777 LINE",
"205 777 LINE",
"205 652 LINE"
);
}
);
width = 513;
},
{
associatedMasterId = "262880E7-CFE1-4BDA-902E-E24798F3240A";
layerId = "471A87D2-9000-4529-8367-8D5BDBB289A2";
name = "DemiBold{119,100}";
paths = (
{
closed = 1;
nodes = (
"387 -10 OFFCURVE",
"467 63 OFFCURVE",
"467 176 CURVE SMOOTH",
"467 286 OFFCURVE",
"394 347 OFFCURVE",
"295 395 CURVE SMOOTH",
"233 430 OFFCURVE",
"175 457 OFFCURVE",
"175 518 CURVE SMOOTH",
"175 565 OFFCURVE",
"204 598 OFFCURVE",
"256 598 CURVE SMOOTH",
"309 598 OFFCURVE",
"341 564 OFFCURVE",
"341 512 CURVE SMOOTH",
"341 481 LINE",
"465 486 LINE",
"465 512 LINE SMOOTH",
"465 632 OFFCURVE",
"380 710 OFFCURVE",
"253 710 CURVE SMOOTH",
"129 710 OFFCURVE",
"49 636 OFFCURVE",
"49 524 CURVE SMOOTH",
"49 415 OFFCURVE",
"123 353 OFFCURVE",
"221 306 CURVE SMOOTH",
"279 274 OFFCURVE",
"341 245 OFFCURVE",
"341 183 CURVE SMOOTH",
"341 137 OFFCURVE",
"311 103 OFFCURVE",
"259 103 CURVE SMOOTH",
"205 103 OFFCURVE",
"176 136 OFFCURVE",
"176 193 CURVE SMOOTH",
"176 219 LINE",
"46 214 LINE",
"46 188 LINE SMOOTH",
"46 68 OFFCURVE",
"128 -10 OFFCURVE",
"261 -10 CURVE SMOOTH"
);
},
{
closed = 1;
nodes = (
"306 -80 LINE",
"306 40 LINE",
"203 40 LINE",
"203 -80 LINE"
);
},
{
closed = 1;
nodes = (
"309 652 LINE",
"309 777 LINE",
"205 777 LINE",
"205 652 LINE"
);
}
);
width = 513;
},
{
layerId = "4E2227F3-52E4-4048-A8EE-327B486EF0A4";
width = 502;
}
);
unicode = 0024;
},
{
color = 1;
glyphname = at;
lastChange = "2016-10-20 07:14:00 +0000";
layers = (
{
layerId = "262880E7-CFE1-4BDA-902E-E24798F3240A";
paths = (
{
closed = 1;
nodes = (
"640 -71 OFFCURVE",
"802 92 OFFCURVE",
"802 290 CURVE SMOOTH",
"802 488 OFFCURVE",
"640 651 OFFCURVE",
"441 651 CURVE SMOOTH",
"242 651 OFFCURVE",
"80 488 OFFCURVE",
"80 290 CURVE SMOOTH",
"80 92 OFFCURVE",
"242 -71 OFFCURVE",
"441 -71 CURVE SMOOTH"
);
},
{
closed = 1;
nodes = (
"254 -50 OFFCURVE",
"102 102 OFFCURVE",
"102 290 CURVE SMOOTH",
"102 478 OFFCURVE",
"254 630 OFFCURVE",
"441 630 CURVE SMOOTH",
"628 630 OFFCURVE",
"780 478 OFFCURVE",
"780 290 CURVE SMOOTH",
"780 102 OFFCURVE",
"628 -50 OFFCURVE",
"441 -50 CURVE SMOOTH"
);
},
{
closed = 1;
nodes = (
"507 119 OFFCURVE",
"551 166 OFFCURVE",
"551 241 CURVE SMOOTH",
"551 383 LINE SMOOTH",
"551 458 OFFCURVE",
"507 505 OFFCURVE",
"435 505 CURVE SMOOTH",
"362 505 OFFCURVE",
"314 459 OFFCURVE",
"314 384 CURVE SMOOTH",
"314 240 LINE SMOOTH",
"314 165 OFFCURVE",
"362 119 OFFCURVE",
"435 119 CURVE SMOOTH"
);
},
{
closed = 1;
nodes = (
"370 135 OFFCURVE",
"331 175 OFFCURVE",
"331 240 CURVE SMOOTH",
"331 384 LINE SMOOTH",
"331 449 OFFCURVE",
"372 489 OFFCURVE",
"435 489 CURVE SMOOTH",
"499 489 OFFCURVE",
"540 449 OFFCURVE",
"540 384 CURVE SMOOTH",
"540 240 LINE SMOOTH",
"540 175 OFFCURVE",
"501 135 OFFCURVE",
"435 135 CURVE SMOOTH"
);
},
{
closed = 1;
nodes = (
"556 124 LINE",
"556 500 LINE",
"540 500 LINE",
"540 124 LINE"
);
}
);
width = 882;
},
{
layerId = "4E2227F3-52E4-4048-A8EE-327B486EF0A4";
width = 882;
}
);
unicode = 0040;
},
{
color = 1;
glyphname = copyright;
lastChange = "2016-10-20 07:14:01 +0000";
layers = (
{
layerId = "262880E7-CFE1-4BDA-902E-E24798F3240A";
paths = (
{
closed = 1;
nodes = (
"640 -71 OFFCURVE",
"802 92 OFFCURVE",
"802 290 CURVE SMOOTH",
"802 488 OFFCURVE",
"640 651 OFFCURVE",
"441 651 CURVE SMOOTH",
"242 651 OFFCURVE",
"80 488 OFFCURVE",
"80 290 CURVE SMOOTH",
"80 92 OFFCURVE",
"242 -71 OFFCURVE",
"441 -71 CURVE SMOOTH"
);
},
{
closed = 1;
nodes = (
"254 -50 OFFCURVE",
"102 102 OFFCURVE",
"102 290 CURVE SMOOTH",
"102 478 OFFCURVE",
"254 630 OFFCURVE",
"441 630 CURVE SMOOTH",
"628 630 OFFCURVE",
"780 478 OFFCURVE",
"780 290 CURVE SMOOTH",
"780 102 OFFCURVE",
"628 -50 OFFCURVE",
"441 -50 CURVE SMOOTH"
);
},
{
closed = 1;
nodes = (
"513 103 OFFCURVE",
"559 148 OFFCURVE",
"559 223 CURVE SMOOTH",
"559 225 LINE",
"543 225 LINE",
"543 223 LINE SMOOTH",
"543 158 OFFCURVE",
"504 118 OFFCURVE",
"438 118 CURVE SMOOTH",
"373 118 OFFCURVE",
"334 158 OFFCURVE",
"334 223 CURVE SMOOTH",
"334 367 LINE SMOOTH",
"334 433 OFFCURVE",
"375 472 OFFCURVE",
"438 472 CURVE SMOOTH",
"502 472 OFFCURVE",
"543 433 OFFCURVE",
"543 367 CURVE SMOOTH",
"543 366 LINE",
"559 366 LINE",
"559 367 LINE SMOOTH",
"559 442 OFFCURVE",
"513 487 OFFCURVE",
"438 487 CURVE SMOOTH",
"364 487 OFFCURVE",
"317 442 OFFCURVE",
"317 367 CURVE SMOOTH",
"317 223 LINE SMOOTH",
"317 148 OFFCURVE",
"364 103 OFFCURVE",
"438 103 CURVE SMOOTH"
);
}
);
width = 882;
},
{
layerId = "4E2227F3-52E4-4048-A8EE-327B486EF0A4";
width = 882;
}
);
unicode = 00A9;
},
{
color = 1;
glyphname = registered;
lastChange = "2016-10-20 07:14:04 +0000";
layers = (
{
layerId = "262880E7-CFE1-4BDA-902E-E24798F3240A";
paths = (
{
closed = 1;
nodes = (
"640 -72 OFFCURVE",
"802 91 OFFCURVE",
"802 289 CURVE SMOOTH",
"802 487 OFFCURVE",
"640 650 OFFCURVE",
"441 650 CURVE SMOOTH",
"242 650 OFFCURVE",
"80 487 OFFCURVE",
"80 289 CURVE SMOOTH",
"80 91 OFFCURVE",
"242 -72 OFFCURVE",
"441 -72 CURVE SMOOTH"
);
},
{
closed = 1;
nodes = (
"254 -51 OFFCURVE",
"102 101 OFFCURVE",
"102 289 CURVE SMOOTH",
"102 477 OFFCURVE",
"254 629 OFFCURVE",
"441 629 CURVE SMOOTH",
"628 629 OFFCURVE",
"780 477 OFFCURVE",
"780 289 CURVE SMOOTH",
"780 101 OFFCURVE",
"628 -51 OFFCURVE",
"441 -51 CURVE SMOOTH"
);
},
{
closed = 1;
nodes = (
"380 105 LINE",
"380 489 LINE",
"452 489 LINE SMOOTH",
"508 489 OFFCURVE",
"543 453 OFFCURVE",
"543 394 CURVE SMOOTH",
"543 335 OFFCURVE",
"508 299 OFFCURVE",
"452 299 CURVE SMOOTH",
"377 299 LINE",
"377 287 LINE",
"452 287 LINE SMOOTH",
"515 287 OFFCURVE",
"555 328 OFFCURVE",
"555 394 CURVE SMOOTH",
"555 460 OFFCURVE",
"515 500 OFFCURVE",
"452 500 CURVE SMOOTH",
"367 500 LINE",
"367 105 LINE"
);
},
{
closed = 1;
nodes = (
"529 103 LINE",
"464 295 LINE",
"453 291 LINE",
"516 103 LINE"
);
}
